<?xml version="1.0" encoding="utf-8"?>
<!-- Generator: Adobe Illustrator 22.1.0, SVG Export Plug-In . SVG Version: 6.00 Build 0)  -->
<svg version="1.1" xmlns="http://www.w3.org/2000/svg" xmlns:xlink="http://www.w3.org/1999/xlink" x="0px" y="0px"
	 viewBox="0 0 1040 830" style="enable-background:new 0 0 1040 830;" xml:space="preserve">
<style type="text/css">
	.st0{fill:#55D9B3;}
</style>
<g id="레이어_1">
</g>
<g id="격리_모드">
	<g id="XMLID_1_">
		<g>
			<path d="M1037.4,295.6c1.8,1.3,2.3,3,2,4.6c0,1.4-0.5,2.7-1.9,3.7c-10.2,14.5-16.8,32.2-15.2,50.2c0.6,7.2,2.1,24.8,11.7,26.6
				c1.9,0.3,3,1.3,3.7,2.6c1.1,1.5,1.4,3.4,0.1,5.5c-8.7,14.1-29.5,24.8-42.4,34.2C887.2,501.5,776,576,665.6,651.2
				c-84.2,57.3-171.5,111.7-252.8,173c-0.7,0.5-1.3,0.8-2,1c-1.4,2-3.9,2.9-6.6,1.2c-69-45-132.5-101.1-196.7-152.5
				c-41-32.8-82-65.9-122.4-99.5C63,556,38,538.1,19,516.2C-15.8,491.3,6.3,419.4,42,405c87.6-69,181.6-131,272.9-194.9
				C415.1,139.8,514.5,65.9,619.5,2.7c1.5-1.2,3.5-1.6,5.7-0.3c80,47.6,155,105,230.2,159.6C916.3,206.2,976.7,251.2,1037.4,295.6z
				 M1023.7,387.9c-3.8-3-6.5-7.4-8.4-12.3c-1,0.6-2,1.2-2.9,1.8c-101.2,63.1-194.8,138.7-293.9,205.3
				c-62.5,42-124.9,84.1-187.3,126.2c-41.3,27.9-83.9,54.6-123.8,84.5c-0.7,0.5-1.4,0.8-2,1c0.6,5.7,2.5,11.5,5.8,17.2
				c13.6-10,27.7-19.3,41.6-28.8c111.6-76.6,223.9-152.3,335.5-228.9c54.8-37.6,109.6-75.3,163.8-113.7
				c17.9-12.7,35.8-25.4,53.4-38.6C1010.1,398,1018.5,392.5,1023.7,387.9z M1018.5,315.6c-0.8,0.5-1.7,1.1-2.5,1.6
				c-86.3,57.3-170.1,118.3-254.2,178.9c6.6-4.5,13.1-9,19.7-13.5c53.4-36.7,106.8-73.4,160.3-110c23.9-16.3,47.3-34.6,72.3-49.2
				c0.5-0.3,1.1-0.5,1.6-0.6C1016.5,320.4,1017.4,318,1018.5,315.6z M1012.2,364.7c-0.2-1.1-0.4-2.2-0.5-3.3
				c-8.3,5.1-16.4,10.6-24.4,16.2c-9,6.3-17.9,12.8-26.9,19C777.9,522.3,591.9,643.7,411,771.7c-1.1,0.8-2.1,1.1-3.1,1
				c-0.8,2.7-1.5,5.3-1.9,8c0.3-0.2,0.6-0.4,0.9-0.7C513.8,705.3,623,633.3,731.4,560.5c45.7-30.7,90.3-62.9,135.1-94.9
				c32-22.8,63.9-45.7,96.1-68.1c8.3-5.8,16.8-12.5,25.6-18.7C996,373.4,1004,368.3,1012.2,364.7z M1011.2,348.6
				c0.1-3.7,0.4-7.3,1-10.8c-9,5.9-17.8,12.4-26.6,18.4c-106.9,73-213.5,146.5-320.3,219.7C611.2,613,557.1,650.1,502.9,687
				c-25.3,17.2-50.2,36.6-76.9,51.6c-0.7,0.4-1.3,0.6-2,0.7c-3,5.2-6.1,10.6-8.9,15.9c13.3-9.2,26.8-18.3,40.2-27.4
				c98.1-66.7,195.5-134.9,295-199.7c43.6-28.4,85.8-59.2,128.6-88.8c43.5-30.1,86.2-63.9,131.9-90.5
				C1011,348.7,1011.1,348.7,1011.2,348.6z M939.2,356.6c27.2-19.1,54.5-41.5,84-57.6c-57.1-41.8-113.9-84.1-171.2-125.7
				C776.9,118.9,702.3,61.7,622.6,14C517.3,77.6,417.5,151.8,316.8,222.4c-87.3,61.2-177,120.6-261.2,186.2
				c61.8,54.6,129.4,103.5,193.9,154.8c41.1,32.7,82.2,65.5,122.8,98.8c18.9,15.6,41.9,31,58,50.1c5.7-2.9,11.1-6.4,16.4-9.8
				c109.5-69.2,213.7-147.7,319.1-222.8C823.5,438.6,881.2,397.3,939.2,356.6z M417.6,728.2c1.5-2.8,3.1-5.5,4.5-8.3
				c-16.9-20.7-42.9-37.5-63.2-54.1c-40-32.7-80.3-64.9-120.7-97.1c-62.3-49.6-127.6-96.9-187.5-149.5c-2.2,3.2-4.4,6.6-6.7,10.1
				c0.2,0.1,0.3,0.1,0.5,0.2c40.4,23.7,74.9,60.3,110.4,90.5c24.9,21.2,51.6,40.4,77.3,60.8c39.2,31.1,78.2,62.4,117.3,93.6
				C371.9,692.3,393.7,712.4,417.6,728.2z M405.5,750.6c2.1-4.2,4.4-8.4,6.7-12.6c-23.4-15.6-44.9-35-66.8-52.5
				c-39.1-31.2-78.1-62.5-117.3-93.6c-25.7-20.4-52.6-39.6-77.6-60.8c-35.7-30.4-70.5-67.6-111.1-91.5c-0.3-0.2-0.6-0.4-0.9-0.7
				c-2.6,4.6-5.1,9.4-7.2,14.3C85.9,506,148,552.3,208.3,598.6C274,649.1,341.6,697.8,405.5,750.6z M395.2,778.2
				c1.2-5.7,3.1-11.4,5.4-17.1c-64.7-53.6-133.3-103-199.9-154.2c-59.1-45.4-120-90.9-173.9-142.4c-2.3,7-3.6,14-3.8,20.9
				c0.5,0.3,1.1,0.8,1.5,1.3c14.1,18,43.6,36,63,51.2c42.1,33.1,84.5,66,126.9,98.9c41.9,32.5,83.8,65,125.6,97.7
				C357.7,748.4,379,761.8,395.2,778.2z M397.2,808.4c-2-5.4-3-10.7-3.2-16c-0.7-0.3-1.4-0.7-2-1.4c-18.1-20.1-43.9-36-65.1-52.6
				c-42.3-33.1-84.8-66-127.2-98.9C157.8,607,116,574.6,74.5,541.8c-14.7-11.6-33-23.1-47.6-36.6c0.5,1.2,0.5,2.3,0.2,3.2
				c0.5,0.4,0.9,0.8,1.1,1.3c18.8,21,42.9,38.6,64.5,56.5c40.4,33.6,81.3,66.7,122.4,99.5C274.7,713.4,333.7,765.4,397.2,808.4z
				 M13,473.5c3.4-18,12.9-36.2,22.6-51.5C22.8,433.3,13.7,454.4,13,473.5z"/>
			<path class="st0" d="M1023.2,299c-29.5,16.1-56.8,38.5-84,57.6c-58,40.8-115.7,82-173.5,123.2
				c-105.4,75.2-209.6,153.7-319.1,222.8c-5.3,3.4-10.7,6.9-16.4,9.8c-16.1-19.1-39.1-34.5-58-50.1c-40.6-33.4-81.7-66.1-122.8-98.8
				C185,512.1,117.4,463.3,55.6,408.7c84.2-65.6,173.9-125,261.2-186.2C417.5,151.8,517.3,77.6,622.6,14
				C702.3,61.7,776.9,118.9,852,173.3C909.3,214.9,966.1,257.1,1023.2,299z"/>
		</g>
		<g>
		</g>
	</g>
</g>
</svg>
