<?xml version="1.0" encoding="utf-8"?>
<!-- Generator: Adobe Illustrator 22.1.0, SVG Export Plug-In . SVG Version: 6.00 Build 0)  -->
<svg version="1.1" xmlns="http://www.w3.org/2000/svg" xmlns:xlink="http://www.w3.org/1999/xlink" x="0px" y="0px"
	 viewBox="0 0 640 420" style="enable-background:new 0 0 640 420;" xml:space="preserve">
<style type="text/css">
	.st0{fill:url(#SVGID_1_);}
	.st1{fill:url(#SVGID_2_);}
	.st2{fill:url(#SVGID_3_);}
	.st3{fill:url(#SVGID_4_);}
	.st4{fill:url(#SVGID_5_);}
	.st5{fill:url(#SVGID_6_);}
	.st6{fill:url(#SVGID_7_);}
	.st7{fill:url(#SVGID_8_);}
	.st8{fill:url(#SVGID_9_);}
	.st9{fill:url(#SVGID_10_);}
	.st10{fill:url(#SVGID_11_);}
	.st11{fill:url(#SVGID_12_);}
	.st12{fill:url(#SVGID_13_);}
	.st13{fill:url(#SVGID_14_);}
	.st14{fill:url(#SVGID_15_);}
	.st15{fill:url(#SVGID_16_);}
	.st16{fill:url(#SVGID_17_);}
	.st17{fill:url(#SVGID_18_);}
	.st18{fill:url(#SVGID_19_);}
	.st19{fill:url(#SVGID_20_);}
	.st20{fill:url(#SVGID_21_);}
	.st21{fill:url(#SVGID_22_);}
	.st22{fill:url(#SVGID_23_);}
	.st23{fill:url(#SVGID_24_);}
	.st24{fill:url(#SVGID_25_);}
	.st25{fill:url(#SVGID_26_);}
	.st26{fill:url(#SVGID_27_);}
	.st27{fill:url(#SVGID_28_);}
	.st28{fill:url(#SVGID_29_);}
	.st29{fill:url(#SVGID_30_);}
	.st30{fill:url(#SVGID_31_);}
	.st31{fill:url(#SVGID_32_);}
	.st32{fill:url(#SVGID_33_);}
	.st33{fill:url(#SVGID_34_);}
	.st34{fill:url(#SVGID_35_);}
	.st35{fill:url(#SVGID_36_);}
	.st36{fill:url(#SVGID_37_);}
	.st37{fill:url(#SVGID_38_);}
	.st38{fill:url(#SVGID_39_);}
	.st39{fill:url(#SVGID_40_);}
	.st40{fill:url(#SVGID_41_);}
	.st41{fill:url(#SVGID_42_);}
	.st42{fill:url(#SVGID_43_);}
	.st43{fill:url(#SVGID_44_);}
	.st44{fill:url(#SVGID_45_);}
	.st45{fill:url(#SVGID_46_);}
	.st46{fill:url(#SVGID_47_);}
	.st47{fill:url(#SVGID_48_);}
	.st48{fill:url(#SVGID_49_);}
	.st49{fill:url(#SVGID_50_);}
	.st50{fill:url(#SVGID_51_);}
	.st51{fill:url(#SVGID_52_);}
	.st52{fill:url(#SVGID_53_);}
	.st53{fill:url(#SVGID_54_);}
	.st54{fill:url(#SVGID_55_);}
	.st55{fill:url(#SVGID_56_);}
	.st56{fill:url(#SVGID_57_);}
	.st57{fill:url(#SVGID_58_);}
	.st58{fill:#F26F9C;}
	.st59{fill:#F3ADC0;}
	.st60{fill:#F3E59A;}
	.st61{fill:#9FE0F6;}
	.st62{fill:#0092C7;}
	.st63{fill:url(#SVGID_59_);}
	.st64{fill:url(#SVGID_60_);}
	.st65{fill:url(#SVGID_61_);}
	.st66{fill:url(#SVGID_62_);}
</style>
<g id="레이어_1">
</g>
<g id="objects">
	<g>
		<g id="XMLID_1_">
			<g>
				<radialGradient id="SVGID_1_" cx="319.9997" cy="205.0001" r="542.4279" gradientUnits="userSpaceOnUse">
					<stop  offset="0" style="stop-color:#FFFFFF"/>
					<stop  offset="0.4054" style="stop-color:#FBFBFB"/>
					<stop  offset="0.7864" style="stop-color:#F0F0F0"/>
					<stop  offset="1" style="stop-color:#E6E6E6"/>
				</radialGradient>
				<path class="st0" d="M620.1,45.3c-17.6,0.2-35.1,0.3-52.7,0.4c-8.5,0.1-16.9,0.1-25.4,0.2c-8.9,0-18-0.5-26.9,0.3
					c0.1-1.8,0.2-3.6,0.4-5.5c7.1,2.1,14.7,1.8,22,1.5c8.6-0.4,17.1-1.1,25.8-1c18.9,0.1,37.8,0.5,56.7,0c0,0.3,0.1,0.6,0.2,0.9
					c0.1,0.5,0.2,0.9,0.4,1.3c0,0.1,0,0.2,0,0.2c0,0,0,0,0,0c0,0,0,0.1,0,0.1c0,0,0,0.1,0,0.1c0,0.5-0.1,1.1-0.1,1.6
					C620.4,45.3,620.3,45.3,620.1,45.3z"/>
				<radialGradient id="SVGID_2_" cx="320" cy="205" r="542.4277" gradientUnits="userSpaceOnUse">
					<stop  offset="0" style="stop-color:#FFFFFF"/>
					<stop  offset="0.4054" style="stop-color:#FBFBFB"/>
					<stop  offset="0.7864" style="stop-color:#F0F0F0"/>
					<stop  offset="1" style="stop-color:#E6E6E6"/>
				</radialGradient>
				<path class="st1" d="M620.1,46.5c0.2,0,0.3-0.1,0.3-0.1c-0.1,1.5-0.1,3.1-0.2,4.6c0,0-0.1,0-0.1,0c-17.6,0-35.1,0.1-52.7,0.2
					c-8.5,0-16.9,0-25.4,0.1c-8.9,0-18.1-0.6-27,0.3c0-1.5,0-3.1,0.1-4.6c8.2,0.8,16.7,0.2,24.9,0.2c9.1,0,18.2-0.1,27.3-0.1
					C585,46.9,602.5,46.7,620.1,46.5z"/>
				<radialGradient id="SVGID_3_" cx="320" cy="205.0002" r="542.4274" gradientUnits="userSpaceOnUse">
					<stop  offset="0" style="stop-color:#FFFFFF"/>
					<stop  offset="0.4054" style="stop-color:#FBFBFB"/>
					<stop  offset="0.7864" style="stop-color:#F0F0F0"/>
					<stop  offset="1" style="stop-color:#E6E6E6"/>
				</radialGradient>
				<path class="st2" d="M515.4,67.4c-0.1-1.9-0.2-3.8-0.2-5.7c7.1,2.1,15.4,1.5,22.7,1.4c8.7-0.1,17.4-0.1,26.1,0.2
					c18.7,0.7,37.4-0.5,56.1-0.5c0,1.4,0,2.8,0,4.2c-17.6,1-35.2,0.2-52.9,0.4C549.8,67.6,532.8,68.3,515.4,67.4z"/>
				<radialGradient id="SVGID_4_" cx="319.9995" cy="205.0001" r="542.4292" gradientUnits="userSpaceOnUse">
					<stop  offset="0" style="stop-color:#FFFFFF"/>
					<stop  offset="0.4054" style="stop-color:#FBFBFB"/>
					<stop  offset="0.7864" style="stop-color:#F0F0F0"/>
					<stop  offset="1" style="stop-color:#E6E6E6"/>
				</radialGradient>
				<path class="st3" d="M619.8,39.9C619.8,39.9,619.8,40,619.8,39.9c-18.1-0.1-36.3,0.2-54.5,0.1c-16.6-0.2-33.2,2.5-49.7,0.1
					c0-0.1,0-0.2,0-0.3c0.3-3.2,0.7-8.7,3.6-10.8c0.1-0.1,0.1-0.2-0.1-0.3c10.6-4.4,23.6-1.6,34.5,0c8.7,1.3,16.6,1.8,25.3,0.9
					C589.7,28.7,618.9,23.9,619.8,39.9z"/>
				<radialGradient id="SVGID_5_" cx="320.0004" cy="204.9997" r="542.4272" gradientUnits="userSpaceOnUse">
					<stop  offset="0" style="stop-color:#FFFFFF"/>
					<stop  offset="0.4054" style="stop-color:#FBFBFB"/>
					<stop  offset="0.7864" style="stop-color:#F0F0F0"/>
					<stop  offset="1" style="stop-color:#E6E6E6"/>
				</radialGradient>
				<path class="st4" d="M516.8,133.1c0.1-2.1,0.1-4.3,0.2-6.4c16.3,3.9,33.9,1.9,50.4,0.9c17.5-1,34.9,0.2,52.4,0.2
					c0,1.2,0,2.5,0,3.7c-16.9,1.8-33.8-0.1-50.6-0.1c-8.5,0-16.9,0.3-25.4,0.7C534.8,132.6,525.8,132.4,516.8,133.1z"/>
				<radialGradient id="SVGID_6_" cx="320.0002" cy="205" r="542.4278" gradientUnits="userSpaceOnUse">
					<stop  offset="0" style="stop-color:#FFFFFF"/>
					<stop  offset="0.4054" style="stop-color:#FBFBFB"/>
					<stop  offset="0.7864" style="stop-color:#F0F0F0"/>
					<stop  offset="1" style="stop-color:#E6E6E6"/>
				</radialGradient>
				<path class="st5" d="M516.7,139.4c0.1-1.8,0.1-3.6,0.2-5.4c17.3,1.3,35-1.1,52.3-1.1c16.9-0.1,33.8,1.8,50.6,0.1
					c0,1.7,0,3.5,0,5.2c-0.1,0-0.2,0-0.3,0c-17.4,2.1-35,1.6-52.6,1C550.5,138.5,533.1,136.9,516.7,139.4z"/>
				<radialGradient id="SVGID_7_" cx="319.9997" cy="204.9998" r="542.4285" gradientUnits="userSpaceOnUse">
					<stop  offset="0" style="stop-color:#FFFFFF"/>
					<stop  offset="0.4054" style="stop-color:#FBFBFB"/>
					<stop  offset="0.7864" style="stop-color:#F0F0F0"/>
					<stop  offset="1" style="stop-color:#E6E6E6"/>
				</radialGradient>
				<path class="st6" d="M517.2,103.3c0-1.5-0.1-3.1-0.1-4.7c16.7,1.3,33.8,0.1,50.5-0.3c17.5-0.5,35-0.5,52.4-1.2
					c0,1.6,0,3.2,0,4.8c-17.6,1.6-35.3-0.7-52.9-0.2c-8.3,0.2-16.5,0.8-24.8,1.2c-8.3,0.4-16.6,0-24.9,0.3
					C517.3,103.2,517.3,103.2,517.2,103.3z"/>
				<radialGradient id="SVGID_8_" cx="319.9996" cy="204.9997" r="542.4282" gradientUnits="userSpaceOnUse">
					<stop  offset="0" style="stop-color:#FFFFFF"/>
					<stop  offset="0.4054" style="stop-color:#FBFBFB"/>
					<stop  offset="0.7864" style="stop-color:#F0F0F0"/>
					<stop  offset="1" style="stop-color:#E6E6E6"/>
				</radialGradient>
				<path class="st7" d="M566.4,92.1c-16.7,0.3-33,0.9-49.6-0.1c0,0,0,0,0,0c-0.1-2-0.2-3.6-0.3-5.4c16.8,1.4,34.2-0.1,51-0.4
					c17.6-0.3,35.2-0.6,52.8-0.4c0,1.7,0,3.4,0,5.1H620c0-0.3-0.3-0.7-0.7-0.6C601.7,92.7,584.1,91.8,566.4,92.1z"/>
				<path d="M608.3,239c-0.4,0.8-0.6,1.5-0.9,2.2c0.7-0.1,1.3-0.1,1.9-0.2c0.3-0.1,0.6,0.2,0.6,0.5c0,1-0.2,1.9,0,2.9
					c0.1,0.6-0.6,0.8-0.9,0.3c-0.4-0.8-0.3-1.7-0.1-2.6c-0.8,0.1-1.5,0-2.3,0.2c-0.5,0.1-0.8-0.5-0.5-0.8c0.8-0.8,1.1-1.9,1.8-2.8
					C608,238.5,608.4,238.7,608.3,239z"/>
				<path d="M605.9,330c1,0.2,1.6,1.2,1.8,2.2c0.1,0.4-0.4,0.5-0.6,0.2c-0.2-0.4-0.5-0.7-0.8-0.9c-0.4-0.2-0.7-0.3-1-0.5
					C604.8,330.5,605.4,329.9,605.9,330z"/>
				<path d="M605,319.5c0.7-0.9,2.1-1.1,3.2-0.9c0.3,0.1,0.3,0.6,0,0.6c-0.5,0.1-1,0.3-1.4,0.5c-0.4,0.3-0.8,0.6-1.3,0.7
					C604.9,320.6,604.7,319.9,605,319.5z"/>
				<path d="M605.9,326.7c0.1-0.4,0.5-0.5,0.8-0.5c0.9,0.2,1.7,0.7,2.2,1.4c0.2,0.3-0.1,0.7-0.4,0.5c-0.6-0.4-1.3-0.6-2-0.6
					c-0.3,0-0.6-0.2-0.6-0.5C605.9,326.9,605.9,326.8,605.9,326.7z"/>
				<path d="M605.5,253.5c0-0.9,0-2.4,1-2.8c0.7-0.2,1.5,0.1,2.2,0.2c0.2,0,0.3,0.3,0.1,0.4c-0.6,0.3-1.1,0.2-1.7,0.3
					c-0.5,0.1-0.5,0.8-0.5,1.4c0.9,0.1,1.7-0.3,2.6-0.1c0.3,0.1,0.4,0.3,0.4,0.5c0,0.8-0.1,2.1-1.1,2.3c-0.6,0.1-1.3-0.1-1.9-0.2
					c-0.5-0.1-0.5-0.9,0-0.9c0.5-0.1,0.9,0.1,1.4,0.1c0.4,0,0.5-0.4,0.5-0.8c-0.9-0.1-1.7,0.3-2.6,0.1
					C605.7,254,605.5,253.8,605.5,253.5z"/>
				<path d="M608.1,323.1c-0.4-0.1-0.9,0.1-1.3,0.2c-0.5,0.1-0.9,0.5-1.4,0.4c-0.3,0-0.6-0.3-0.5-0.6c0.2-0.7,1.2-1,1.9-1
					c0.6,0.1,1,0.2,1.5,0.6C608.4,322.9,608.3,323.1,608.1,323.1z"/>
				<path d="M607.8,314.4c-0.4,0.1-0.9,0.3-1.3,0.6c-0.3,0.2-0.6,0.5-1,0.7c-0.3,0.1-0.6-0.2-0.5-0.5c0.4-1.1,1.8-1.3,2.8-1.1
					C608,314.1,608,314.4,607.8,314.4z"/>
				<path d="M607.1,310.8c-0.5,0.1-1.1,0.4-1.5,0.7c-0.5,0.3-0.9,0.7-1.4,0.9c-0.4,0.1-0.8-0.4-0.5-0.7c0.4-0.5,1.1-0.8,1.7-1.1
					c0.6-0.2,1.1-0.3,1.7-0.3C607.3,310.3,607.4,310.7,607.1,310.8z"/>
				<path d="M605.7,335.4c-1-0.2-2.1,0.2-3-0.6c-0.3-0.2-0.1-0.7,0.2-0.8c0.6-0.1,1.1,0.1,1.6,0.3c0.5,0.1,0.9,0.3,1.3,0.6
					C606.1,335.2,605.9,335.5,605.7,335.4z"/>
				<path d="M603.6,229.4C603.5,229.4,603.5,229.4,603.6,229.4c-0.4-0.1-0.8-0.2-1.2-0.3c-0.2-0.1-0.2-0.4,0.1-0.4
					c0.5,0,1.5-0.3,1.9,0.2c0.3,0.4,0.2,0.9-0.1,1.3c0.5,0.1,1.1,0.1,1.5,0.5c0.6,0.5-0.1,1.5-0.5,2c-0.8,0.9-2,0.7-2.9,0.3
					c-0.4-0.2-0.4-0.7,0-0.9c0.6-0.2,1,0.1,1.5,0.1c0.5,0,0.7-0.4,0.9-0.8c-0.3-0.1-0.7-0.1-0.9-0.1c-0.3,0-0.5-0.1-0.8-0.2
					c-0.3-0.1-0.3-0.5-0.2-0.7C603.2,230,603.4,229.7,603.6,229.4C603.5,229.4,603.5,229.4,603.6,229.4z"/>
				<path d="M602.2,309.9c-0.3,0.1-0.5-0.2-0.5-0.5c0.3-1.1,2-1.7,3.1-1.4c0.2,0.1,0.1,0.3,0,0.3c-0.5,0.2-1.1,0.5-1.5,0.9
					C602.9,309.5,602.6,309.8,602.2,309.9z"/>
				<path d="M601,305.9c0.6-0.3,1.1-0.4,1.7-0.5c0.2,0,0.2,0.3,0.1,0.3c-0.5,0.3-0.9,0.7-1.4,1.1c-0.5,0.4-0.9,0.9-1.5,1.2
					c-0.3,0.1-0.8-0.1-0.7-0.5C599.6,306.7,600.3,306.2,601,305.9z"/>
				<radialGradient id="SVGID_9_" cx="320" cy="205" r="542.428" gradientUnits="userSpaceOnUse">
					<stop  offset="0" style="stop-color:#FFFFFF"/>
					<stop  offset="0.4054" style="stop-color:#FBFBFB"/>
					<stop  offset="0.7864" style="stop-color:#F0F0F0"/>
					<stop  offset="1" style="stop-color:#E6E6E6"/>
				</radialGradient>
				<path class="st8" d="M601.1,264.6c0.4,0.1,0.7,0,1.1,0c0.4,0,0.4,0.4,0.4,0.8c-0.9,0-1.8-0.2-2-1.1
					C600.8,264.5,600.9,264.6,601.1,264.6z"/>
				<path d="M602.8,263.5c0.9,0.4,0.8,1.6,0.8,2.4c0,0.3-0.2,0.5-0.5,0.5c-1.5,0.1-3.3-0.4-3.5-2.1c-0.1-1.6,1.1-3.1,2.4-3.9
					c0.1-0.1,0.3,0.1,0.2,0.2c-0.6,0.8-1.4,1.8-1.6,2.9c0,0,0.1,0,0.1-0.1c0.3-0.1,0.7,0.1,1.1,0
					C602.2,263.5,602.5,263.4,602.8,263.5z M602.2,264.5c-0.4,0-0.7,0.1-1.1,0c-0.2,0-0.4-0.1-0.5-0.3c0.2,0.9,1.1,1.1,2,1.1
					C602.6,265,602.6,264.5,602.2,264.5z"/>
				<path d="M600.2,336.8c-0.3-0.2-0.2-0.7,0.2-0.6c0.8,0.1,2.2,0.7,2.2,1.7c0,0.3-0.4,0.3-0.5,0C602,337.2,600.8,337.2,600.2,336.8
					z"/>
				<path d="M597.6,338.3c-0.1-0.4,0.3-0.7,0.7-0.5c0.5,0.3,0.8,0.9,1.2,1.4c0.3,0.4,0.7,0.8,1,1.2c0.1,0.1,0,0.3-0.2,0.2
					c-0.5-0.4-1.1-0.6-1.5-1C598.3,339.3,597.8,339,597.6,338.3z"/>
				<path d="M596.7,305.6c-0.1-0.6,0.6-1.3,1.2-1.5c0.3-0.1,0.6-0.2,0.9-0.2c0.3,0,0.4,0.1,0.7,0.2c0.2,0.1,0.1,0.2,0,0.3
					c-0.2,0.1-0.4,0.2-0.6,0.3c-0.2,0.1-0.4,0.2-0.6,0.3c-0.4,0.3-0.6,0.8-1.1,0.9C597,305.9,596.8,305.8,596.7,305.6z"/>
				<path d="M596.2,339.9c1.1,0.2,1.3,1.7,0.8,2.5c-0.1,0.2-0.5,0.1-0.4-0.2c0.1-0.7-0.3-1.2-0.7-1.7
					C595.5,340.2,595.8,339.8,596.2,339.9z"/>
				<path d="M594.7,303.5c0-0.7,0.8-1.3,1.4-1.6c0.4-0.3,0.9-0.4,1.4-0.3c0.2,0,0.2,0.4,0,0.4c-0.4,0.1-0.8,0.5-1.1,0.8
					c-0.3,0.3-0.6,0.9-1.1,1C595,304,594.7,303.9,594.7,303.5z"/>
				<path d="M597,221.4c-0.8,1.3-1.2,2.8-1.9,4c1.1,0.1,2.3,0.2,3.4,0.4c0.5,0.1,0.5,0.8,0,0.9c-1.5,0.1-2.9-0.2-4.3-0.2
					c-0.5,0-0.7-0.6-0.3-0.9c1.1-1.1,1.3-2.8,2.3-4c-0.4,0-0.8,0.1-1.2,0.1c-0.2,0-0.2-0.2-0.1-0.3c0.6-0.2,1.3-0.4,2-0.5
					C596.9,220.9,597.2,221.1,597,221.4z"/>
				<radialGradient id="SVGID_10_" cx="319.9997" cy="205" r="542.4279" gradientUnits="userSpaceOnUse">
					<stop  offset="0" style="stop-color:#FFFFFF"/>
					<stop  offset="0.4054" style="stop-color:#FBFBFB"/>
					<stop  offset="0.7864" style="stop-color:#F0F0F0"/>
					<stop  offset="1" style="stop-color:#E6E6E6"/>
				</radialGradient>
				<path class="st9" d="M516,178c0-1.9,0-3.9,0-5.8c15.5,3.4,31.6,0.1,47.3,0.1c18.9,0,37.7-0.1,56.6-0.3c0,2,0.1,3.9,0.1,5.9
					c-17.3-0.4-34.5,0.3-51.8,0.8C550.7,179.3,533.5,178.9,516,178z"/>
				<path d="M590.3,300.9c0.1-0.9,0.7-1.7,1.2-2.5c0.2-0.3,0.6-0.1,0.5,0.2c-0.3,0.8-0.5,1.7-0.9,2.5
					C590.9,301.5,590.2,301.3,590.3,300.9z"/>
				<path d="M591.4,341.9c0.8,0.7,0.8,1.9,0.2,2.8c-0.1,0.2-0.5,0.1-0.4-0.2c0.2-0.7,0-1.4-0.4-2C590.4,342.1,591,341.5,591.4,341.9
					z"/>
				<path d="M588.7,266.4c0.9-0.1,1.8-0.1,2.7-0.2c0.2,0,0.4,0.2,0.4,0.4c-0.1,0.9-0.4,1.6-0.8,2.4c-0.3,0.6-0.5,1.4-1.2,1.6
					c-0.2,0-0.5-0.1-0.5-0.3c-0.1-0.6,0.4-1.1,0.7-1.6c0.3-0.6,0.6-1.2,0.8-1.8c-0.7,0-1.4-0.1-2.1-0.1
					C588.5,266.7,588.5,266.4,588.7,266.4z"/>
				<path d="M587.1,345.1c0.2-0.8,0-1.4-0.4-2c-0.2-0.4,0.3-0.9,0.7-0.6c0.9,0.7,1,2,0.4,2.9C587.5,345.7,587,345.5,587.1,345.1z"/>
				<radialGradient id="SVGID_11_" cx="319.9997" cy="204.9998" r="542.4293" gradientUnits="userSpaceOnUse">
					<stop  offset="0" style="stop-color:#FFFFFF"/>
					<stop  offset="0.4054" style="stop-color:#FBFBFB"/>
					<stop  offset="0.7864" style="stop-color:#F0F0F0"/>
					<stop  offset="1" style="stop-color:#E6E6E6"/>
				</radialGradient>
				<path class="st10" d="M517.2,120.3c0-1.9,0.1-3.8,0.1-5.7c7.9,0.2,16-0.6,23.9-0.8c9-0.2,18-0.3,27-0.3
					c17.3,0,34.6,0.4,51.8,0.4c0,1.9,0,3.8,0,5.7c-0.1,0-0.2,0-0.3,0c-15.9,3.1-32.7,0.6-48.8,0.7c-9,0.1-18,0.2-27,0.2
					C534.9,120.4,526,119.8,517.2,120.3z"/>
				<path d="M585.6,300.9c0-0.5,0.2-1,0.2-1.5c0-0.5,0-0.9-0.1-1.4c-0.1-0.6,0.7-0.7,0.9-0.2c0.4,1,0.6,2.4,0,3.4
					C586.2,301.5,585.6,301.4,585.6,300.9z"/>
				<radialGradient id="SVGID_12_" cx="319.9995" cy="204.9999" r="542.4292" gradientUnits="userSpaceOnUse">
					<stop  offset="0" style="stop-color:#FFFFFF"/>
					<stop  offset="0.4054" style="stop-color:#FBFBFB"/>
					<stop  offset="0.7864" style="stop-color:#F0F0F0"/>
					<stop  offset="1" style="stop-color:#E6E6E6"/>
				</radialGradient>
				<path class="st11" d="M592.6,240.9c-1.2-2.3-5-9.1-8.9-11.7c6.3,0.8,11.9,2.1,16.4,7c5.3,5.7,2.9,13.1-1.2,18.6
					C597.6,249.6,593.9,243.3,592.6,240.9z"/>
				<path d="M583.9,220.5c0.1-0.8,0.2-1.5,0.3-2.3c0-0.7,1-0.6,1,0c0,0.7,0,1.4-0.1,2.2c0,0.7,0,1.4-0.3,2c-0.2,0.5-0.8,0.4-1,0
					C583.7,221.7,583.8,221.1,583.9,220.5z"/>
				<radialGradient id="SVGID_13_" cx="320.0002" cy="204.9999" r="542.4279" gradientUnits="userSpaceOnUse">
					<stop  offset="0" style="stop-color:#FFFFFF"/>
					<stop  offset="0.4054" style="stop-color:#FBFBFB"/>
					<stop  offset="0.7864" style="stop-color:#F0F0F0"/>
					<stop  offset="1" style="stop-color:#E6E6E6"/>
				</radialGradient>
				<path class="st12" d="M575.2,334.2c0.6-3.5,2.3-8.1,2.9-9.2c3.4-7.3,6.6-14.5,12.5-20.2c6.2,1-2.2,13.4-3.4,16.2
					c-2.1,4.9-3.7,14.3-8.7,17c-3,1.7-3.7-0.3-3.3-3.1C575.4,334.8,575.6,334.4,575.2,334.2C575.3,334.2,575.2,334.2,575.2,334.2z"
					/>
				<path d="M582.6,297.5c0.1-0.4,0.8-0.4,0.9,0c0.2,0.8,0.2,1.7,0,2.4c-0.1,0.4-0.8,0.4-0.9,0C582.5,299.2,582.4,298.3,582.6,297.5
					z"/>
				<path d="M582.8,342.6c-0.2,1-0.7,1.9-0.9,2.9c0,0.1-0.3,0.1-0.3,0c-0.2-1.1,0-2.2,0.5-3.2C582.3,342,582.8,342.3,582.8,342.6z"
					/>
				<radialGradient id="SVGID_14_" cx="320.0002" cy="205.0001" r="542.4268" gradientUnits="userSpaceOnUse">
					<stop  offset="0" style="stop-color:#FFFFFF"/>
					<stop  offset="0.4054" style="stop-color:#FBFBFB"/>
					<stop  offset="0.7864" style="stop-color:#F0F0F0"/>
					<stop  offset="1" style="stop-color:#E6E6E6"/>
				</radialGradient>
				<path class="st13" d="M581.5,337c0,0-0.1,0-0.1,0c1-1.4,1.8-3.1,2.5-4.6c2.1-4.5,3.4-9.5,5.7-13.8c1-1.9,3.3-5.4,4.3-8.6
					c7.1,2.1,7.9,10,6,16.2C597.3,334.4,589.8,338.7,581.5,337z"/>
				<radialGradient id="SVGID_15_" cx="320.0002" cy="205" r="542.4266" gradientUnits="userSpaceOnUse">
					<stop  offset="0" style="stop-color:#FFFFFF"/>
					<stop  offset="0.4054" style="stop-color:#FBFBFB"/>
					<stop  offset="0.7864" style="stop-color:#F0F0F0"/>
					<stop  offset="1" style="stop-color:#E6E6E6"/>
				</radialGradient>
				<path class="st14" d="M584.6,247c-1.5-2.9-6.7-12.3-5.5-16.8c0,0,0.1-0.1,0.2-0.1c5.4-4.2,22.7,25.3,17.8,31
					C594.2,264.5,585.5,248.7,584.6,247z"/>
				<path d="M580.9,270.4c0,0.2,0,0.5-0.3,0.6c-0.4,0.2-0.7,0.4-1.1,0.5c-0.3,0.1-0.5-0.1-0.5-0.3c0-0.8,0.2-1.3,0.6-1.8
					c-0.2-1.2-0.4-2.3-0.4-3.6c0-0.2,0.2-0.5,0.4-0.5c0.6-0.1,1.6-0.4,2.1,0.1c0.7,0.8-0.9,1.9-1.1,2.5c0,0,0,0,0,0.1
					c0.2-0.1,0.5,0,0.4,0.3c-0.1,0.2-0.2,0.4-0.3,0.6C580.7,269.4,580.8,269.9,580.9,270.4z"/>
				<path d="M578.3,297.8c0.4,1,0.5,2,0.8,3c0.1,0.4-0.5,0.5-0.7,0.1c-0.3-1-0.3-2-0.5-3C577.8,297.7,578.2,297.5,578.3,297.8z"/>
				<radialGradient id="SVGID_16_" cx="319.9994" cy="204.9999" r="542.4294" gradientUnits="userSpaceOnUse">
					<stop  offset="0" style="stop-color:#FFFFFF"/>
					<stop  offset="0.4054" style="stop-color:#FBFBFB"/>
					<stop  offset="0.7864" style="stop-color:#F0F0F0"/>
					<stop  offset="1" style="stop-color:#E6E6E6"/>
				</radialGradient>
				<path class="st15" d="M591,259.5c-6.1,5.8-13,0.2-16.4-6c-4.2-7.8-3-16.6,3.6-22.4c-0.5,5.1,4.9,15,6,17.3
					C585,249.9,587.8,255.7,591,259.5z"/>
				<path d="M577.9,343.4c-0.2,0.4-0.3,0.7-0.5,1c-0.2,0.3-0.6,0.1-0.5-0.2c0.2-0.9,0.3-1.9,1-2.6c0.3-0.3,1,0,0.8,0.5
					C578.3,342.5,578.1,342.9,577.9,343.4z"/>
				<path d="M576,221.8c0.4-0.4,1-1.5-0.1-1c-0.3,0.1-0.5,0.1-0.8,0.1c0,0,0-0.1,0-0.1c0.9-0.2,1.3-1.1,2.2-0.6
					c0.1,0.1,0.2,0.2,0.2,0.3c0,0.6-0.1,1.1-0.3,1.6c0.5,0.6,0.8,1.2,0.5,2c-0.3,0.8-1.2,1.7-1.9,2.1c-0.5,0.4-1.1-0.1-0.8-0.7
					c0.3-0.6,0.7-0.9,1.1-1.4c0.6-0.6,0.5-1-0.1-1.6C575.8,222.4,575.8,222,576,221.8z"/>
				<radialGradient id="SVGID_17_" cx="320.0008" cy="205" r="542.4258" gradientUnits="userSpaceOnUse">
					<stop  offset="0" style="stop-color:#FFFFFF"/>
					<stop  offset="0.4054" style="stop-color:#FBFBFB"/>
					<stop  offset="0.7864" style="stop-color:#F0F0F0"/>
					<stop  offset="1" style="stop-color:#E6E6E6"/>
				</radialGradient>
				<path class="st16" d="M575.2,328.5c-0.4,1.1-1,2.9-1.4,4.8c-5.1-4-4.8-12.1-3.2-17.9c2.3-8.4,9.2-9.8,16.8-8.9
					C581.4,312.1,578,321.2,575.2,328.5z"/>
				<path d="M573.5,300.1c0.1,0.7,0.6,1,0.9,1.6c0.2,0.3-0.1,0.6-0.4,0.6c-1,0-1.5-1.2-1.5-2.1C572.6,299.7,573.5,299.6,573.5,300.1
					z"/>
				<path d="M572.2,225.4c-0.4-0.5-0.3-1.4-0.3-2c-0.1-1-0.1-1.9-0.1-2.9c0-0.4,0.6-0.4,0.7,0c0.1,1,0.2,2,0.3,3
					c0.1,0.5,0.3,1.3-0.1,1.8C572.5,225.5,572.3,225.6,572.2,225.4z"/>
				<path d="M573.1,340.9c0.2-0.3,0.5-0.7,0.8-0.9c0.2-0.1,0.4,0.1,0.3,0.3c-0.2,0.5-0.7,0.9-1.1,1.2c-0.3,0.3-0.6,0.6-1,0.8
					c-0.2,0.1-0.3-0.1-0.1-0.2C572.5,341.8,572.8,341.3,573.1,340.9z"/>
				<path d="M600.1,236.2c-4.5-4.9-10.1-6.2-16.4-7c3.9,2.6,7.7,9.4,8.9,11.7c1.3,2.4,5,8.6,6.2,14C603,249.4,605.4,242,600.1,236.2
					z M591.7,260.3c-13.2,12-29.6-19.7-13.3-29.8c0-0.1,0-0.3,0.1-0.4c-0.3-0.2-0.5-0.7-0.1-1c1.4-1.2,2.9-1.1,4.4-0.4
					c6.8-0.9,15.2,1.9,19.1,7.8c4.5,6.8,2.5,13.9-2.5,19.8c-0.1,0.1-0.2,0.1-0.3,0.2c0.4,2.5,0.1,4.6-1.5,5.9
					C595.9,263.7,593.7,262.5,591.7,260.3z M579.1,230.2c-1.3,4.6,4,14,5.5,16.8c0.9,1.7,9.6,17.4,12.4,14.1
					c4.9-5.7-12.3-35.2-17.8-31C579.2,230.1,579.2,230.2,579.1,230.2z M574.6,253.5c3.3,6.2,10.2,11.8,16.4,6
					c-3.2-3.8-6-9.6-6.7-11.1c-1.1-2.2-6.5-12.2-6-17.3C571.6,236.9,570.5,245.8,574.6,253.5z"/>
				<path d="M570,302.8c-0.1-0.2-0.2-0.5-0.2-0.8c0-0.2,0.1-0.3,0.1-0.5c0-0.1,0.2-0.1,0.2,0c0,0.1,0.2,0.2,0.2,0.4
					c0.1,0.2,0.2,0.4,0.3,0.6c0.3,0.5,0.6,0.9,0.9,1.3c0.3,0.5-0.2,1.1-0.7,0.6C570.5,304,570.2,303.4,570,302.8z"/>
				<path d="M583.9,332.4c-0.7,1.5-1.5,3.2-2.5,4.6c0,0,0.1,0,0.1,0c8.4,1.7,15.8-2.5,18.3-10.8c1.9-6.2,1.1-14.1-6-16.2
					c-1,3.1-3.3,6.6-4.3,8.6C587.2,322.9,586,327.8,583.9,332.4z M575.1,334.9c-0.3,2.8,0.3,4.8,3.3,3.1c5-2.8,6.7-12.1,8.7-17
					c1.2-2.8,9.6-15.2,3.4-16.2c-5.9,5.7-9,12.8-12.5,20.2c-0.5,1.1-2.3,5.7-2.9,9.2c0,0,0,0,0,0
					C575.6,334.4,575.4,334.8,575.1,334.9z M578,339.6c-4.2,1.3-4.8-1.8-4.3-5.2c-6.1-3-5.8-14-4-19.3c2.8-8.4,9.8-11.4,18.2-9.1
					c0,0,0,0,0,0c0.7-0.6,1.3-1.2,2.1-1.7c-0.1-0.3,0.1-0.7,0.5-0.6c0.1,0,0.2,0,0.3,0.1c0.1,0,0.1-0.1,0.2-0.1
					c0.2-0.1,0.4,0,0.5,0.2c2.7,0.7,3.2,2.6,2.8,4.8c17.1,4.8,4.5,35.2-12.8,28.8c-0.1,0-0.2-0.1-0.2-0.2
					C580.3,338.3,579.3,339.2,578,339.6z M573.8,333.3c0.4-1.9,1-3.7,1.4-4.8c2.8-7.3,6.2-16.4,12.1-22.1
					c-7.5-0.8-14.5,0.5-16.8,8.9C569,321.2,568.7,329.3,573.8,333.3z"/>
				<radialGradient id="SVGID_18_" cx="319.9997" cy="205" r="542.4296" gradientUnits="userSpaceOnUse">
					<stop  offset="0" style="stop-color:#FFFFFF"/>
					<stop  offset="0.4054" style="stop-color:#FBFBFB"/>
					<stop  offset="0.7864" style="stop-color:#F0F0F0"/>
					<stop  offset="1" style="stop-color:#E6E6E6"/>
				</radialGradient>
				<path class="st17" d="M515.8,204.9c0-2.1,0-4.3,0.1-6.4c17.8-1.8,35.4-1.4,53.3-0.5c17,0.9,34.1,1.7,51.1-0.4
					c0,2.2,0,4.4,0.2,6.6c-18.1,0-36.2,0.2-54.2,0.2C549.4,204.4,532.4,202,515.8,204.9z"/>
				<radialGradient id="SVGID_19_" cx="320" cy="205" r="542.4271" gradientUnits="userSpaceOnUse">
					<stop  offset="0" style="stop-color:#FFFFFF"/>
					<stop  offset="0.4054" style="stop-color:#FBFBFB"/>
					<stop  offset="0.7864" style="stop-color:#F0F0F0"/>
					<stop  offset="1" style="stop-color:#E6E6E6"/>
				</radialGradient>
				<path class="st18" d="M569.4,261.6c-0.3,0.2-0.7,0.4-1,0.6c0-0.2,0.1-0.4,0.2-0.5c0.1-0.2,0.1-0.2,0.3-0.1
					C569.1,261.6,569.3,261.6,569.4,261.6z"/>
				<path d="M568.3,339.7c0.7-0.4,1.3-1.1,1.9-1.7c0.3-0.2,0.6,0.1,0.4,0.4c-0.6,0.7-1.3,1.3-2.1,1.6
					C568.3,340.2,568.1,339.8,568.3,339.7z"/>
				<path d="M568.4,262.2c0.3-0.2,0.7-0.4,1-0.6c-0.2,0-0.4-0.1-0.6-0.1c-0.2,0-0.2,0-0.3,0.1C568.5,261.8,568.5,262,568.4,262.2z
					 M568.5,260.4c0.8-0.1,1.5,0.4,2.3,0.4c0.2,0,0.3,0.1,0.3,0.3c0.1,0.1,0.2,0.3,0.2,0.4c0,1,0.1,2.1-0.1,3.1
					c-0.1,0.4-0.7,0.4-0.8,0c-0.2-0.7-0.2-1.4-0.1-2.2c-0.7,0.4-1.5,0.8-2.2,1.2c-0.3,0.2-0.8-0.1-0.8-0.5
					C567.3,262.4,567.3,260.6,568.5,260.4z"/>
				<path d="M566.8,229.8c0.5,0.2,1.4,0.2,1.7,0.7c0.3,0.8-0.4,2-1,2.9c0.5,0.2,1,0.3,1.4,0.4c0.5,0.2,0.4,1-0.1,0.9
					c-0.8-0.1-1.7-0.3-2.4-0.8c-0.2-0.2-0.2-0.4-0.1-0.6c0.4-0.6,0.8-1.2,1.1-1.8c0.2-0.2,0.4-0.6,0.4-0.9c0-0.3-0.9-0.5-1.1-0.6
					C566.5,229.9,566.6,229.7,566.8,229.8z"/>
				<radialGradient id="SVGID_20_" cx="320" cy="205" r="542.4283" gradientUnits="userSpaceOnUse">
					<stop  offset="0" style="stop-color:#FFFFFF"/>
					<stop  offset="0.4054" style="stop-color:#FBFBFB"/>
					<stop  offset="0.7864" style="stop-color:#F0F0F0"/>
					<stop  offset="1" style="stop-color:#E6E6E6"/>
				</radialGradient>
				<path class="st19" d="M564.9,253.3c0-0.1,0.1-0.2,0.2-0.3c0.2,0.1,0.5,0.2,0.7,0.2c0.1,0,0.2,0.1,0.2,0.1c0,0,0,0,0,0
					c0,0.3-0.2,0.6-0.4,0.9c-0.3-0.1-0.5-0.2-0.7-0.4C564.7,253.7,564.9,253.4,564.9,253.3z"/>
				<path d="M567.7,335.4c-0.6,0.9-1.7,1-2.5,1.6c-0.2,0.2-0.5-0.1-0.3-0.3c0.6-0.8,1.5-1.3,2.3-1.8
					C567.5,334.7,567.9,335.1,567.7,335.4z"/>
				<path d="M568.7,307.2c-1.3,0.1-2.8-1.1-3.4-2.2c-0.1-0.1,0.1-0.3,0.2-0.2c0.4,0.5,1,0.8,1.6,1.1c0.6,0.3,1.3,0.4,1.8,0.7
					C569.1,306.8,569,307.1,568.7,307.2z"/>
				<path d="M564,232.3c0.1-0.8,0.2-1.5,0.3-2.3c0.1-0.6,1-0.6,1,0c0,0.8-0.1,1.5-0.2,2.3c-0.1,0.7-0.1,1.5-0.4,2.1
					c-0.2,0.3-0.6,0.3-0.8,0C563.7,233.8,563.9,233,564,232.3z"/>
				<path d="M564.9,253.3c0,0.1-0.2,0.4-0.1,0.5c0.2,0.2,0.5,0.3,0.7,0.4c0.2-0.3,0.4-0.6,0.4-0.9c0,0,0,0,0,0
					c-0.1,0-0.1-0.1-0.2-0.1c-0.2-0.1-0.4-0.1-0.7-0.2C565,253.1,565,253.2,564.9,253.3z M564,253.6c0.1-0.4,0.4-0.7,0.6-1
					c0-0.1,0-0.1,0-0.2c0-0.3,0.3-0.4,0.5-0.4c0,0,0.1-0.1,0.1-0.1c0.1,0,0-0.1,0-0.1c0.1,0,0.2,0,0.3,0.1c0,0,0.1,0.1,0.1,0.1
					c0,0,0.2,0.1,0.3,0.1c0.3,0.1,0.7,0.2,0.9,0.5c0.8,0.9-0.1,2.1-0.7,2.8c-0.2,0.2-0.4,0.2-0.6,0.1
					C564.8,255.1,563.6,254.5,564,253.6z"/>
				<path d="M566.7,309.9c-1,0-2.1-0.6-2.5-1.6c-0.1-0.2,0.2-0.3,0.3-0.1c0.5,0.7,1.4,1,2.2,1.1
					C567.2,309.3,567.2,309.9,566.7,309.9z"/>
				<path d="M565.5,331.5c0.4-0.3,0.9,0.3,0.6,0.6c-0.7,1-1.9,1.5-3.1,1.4c-0.3,0-0.4-0.5,0-0.6C564,332.8,564.7,332,565.5,331.5z"
					/>
				<path d="M563.3,239.8c0.4,1.4,0.7,3.1,0.4,4.5c-0.1,0.3-0.6,0.3-0.6,0c-0.2-1.4,0-2.9-0.2-4.4
					C562.8,239.7,563.2,239.6,563.3,239.8z"/>
				<path d="M563.2,328.8c0.4-0.1,0.7-0.2,1.1-0.3c0.4-0.1,0.7,0.4,0.4,0.7c-0.8,0.6-2.1,0.5-3,0.2c-0.2-0.1-0.2-0.3,0-0.4
					C562.2,328.9,562.7,328.9,563.2,328.8z"/>
				<radialGradient id="SVGID_21_" cx="319.9999" cy="205" r="542.4285" gradientUnits="userSpaceOnUse">
					<stop  offset="0" style="stop-color:#FFFFFF"/>
					<stop  offset="0.4054" style="stop-color:#FBFBFB"/>
					<stop  offset="0.7864" style="stop-color:#F0F0F0"/>
					<stop  offset="1" style="stop-color:#E6E6E6"/>
				</radialGradient>
				<path class="st20" d="M606.1,241.5c-0.3,0.3,0,1,0.5,0.8c0.8-0.2,1.5-0.1,2.3-0.2c-0.1,0.9-0.3,1.9,0.1,2.6
					c0.3,0.5,1,0.2,0.9-0.3c-0.2-1,0-1.9,0-2.9c0-0.3-0.3-0.6-0.6-0.5c-0.6,0.2-1.3,0.2-1.9,0.2c0.4-0.7,0.6-1.5,0.9-2.2
					c0.2-0.3-0.2-0.5-0.4-0.3C607.2,239.6,606.9,240.7,606.1,241.5z M567.2,263.2c0,0.4,0.5,0.7,0.8,0.5c0.7-0.4,1.5-0.8,2.2-1.2
					c0,0.7,0,1.5,0.1,2.2c0.1,0.4,0.7,0.5,0.8,0c0.2-1,0.1-2.1,0.1-3.1c0-0.2-0.1-0.3-0.2-0.4c0-0.1-0.1-0.3-0.3-0.3
					c-0.8,0-1.5-0.5-2.3-0.4C567.3,260.6,567.3,262.4,567.2,263.2z M572.2,225.4c0.1,0.2,0.4,0.1,0.5-0.1c0.4-0.5,0.1-1.3,0.1-1.8
					c-0.1-1-0.3-2-0.3-3c0-0.4-0.7-0.5-0.7,0c0,1,0,1.9,0.1,2.9C571.9,224,571.8,224.9,572.2,225.4z M566.4,233.9
					c0.6,0.5,1.5,0.7,2.4,0.8c0.6,0.1,0.7-0.8,0.1-0.9c-0.4-0.1-1-0.2-1.4-0.4c0.5-0.8,1.3-2.1,1-2.9c-0.2-0.6-1.2-0.5-1.7-0.7
					c-0.2-0.1-0.2,0.2-0.1,0.3c0.2,0.1,1.1,0.4,1.1,0.6c0,0.3-0.2,0.6-0.4,0.9c-0.4,0.6-0.7,1.2-1.1,1.8
					C566.2,233.5,566.2,233.8,566.4,233.9z M561.4,255.3c0.1,0.3,0.5,0.3,0.6,0c0.2-0.5,0.1-1.1,0.1-1.7c0-0.7,0-1.4-0.1-2.1
					c0-0.4-0.6-0.4-0.6,0c0,0.6,0,1.2,0,1.8C561.4,254,561.3,254.7,561.4,255.3z M563.3,239.8c-0.1-0.3-0.5-0.2-0.4,0.1
					c0.3,1.5,0,2.9,0.2,4.4c0,0.3,0.6,0.3,0.6,0C563.9,242.9,563.7,241.2,563.3,239.8z M561.6,243.4c0.3-1.1,0-2.8-0.3-3.9
					c-0.2-0.6-1.2-0.4-1,0.2c0.2,0.6,0.2,1.1,0.2,1.7c0,0.7-0.1,1.3,0.1,2C560.7,243.8,561.4,243.9,561.6,243.4z M565.3,230.1
					c0-0.7-0.9-0.7-1,0c-0.1,0.8-0.2,1.5-0.3,2.3c-0.1,0.7-0.3,1.4,0,2.1c0.1,0.3,0.6,0.3,0.8,0c0.3-0.7,0.3-1.4,0.4-2.1
					C565.3,231.6,565.4,230.8,565.3,230.1z M565.2,251.7c0.1,0,0.1,0.2,0,0.1c0,0-0.1,0.1-0.1,0.1c-0.3,0-0.5,0.1-0.5,0.4
					c0,0.1,0,0.1,0,0.2c-0.2,0.3-0.5,0.6-0.6,1c-0.3,0.9,0.9,1.5,1.5,1.8c0.2,0.1,0.5,0.1,0.6-0.1c0.6-0.7,1.5-1.9,0.7-2.8
					c-0.2-0.3-0.6-0.4-0.9-0.5c-0.1,0-0.3-0.1-0.3-0.1c0,0-0.1-0.1-0.1-0.1C565.4,251.8,565.3,251.7,565.2,251.7z M606.6,254.7
					c-0.5,0.1-0.5,0.8,0,0.9c0.6,0.1,1.3,0.4,1.9,0.2c1-0.2,1.1-1.5,1.1-2.3c0-0.2-0.2-0.5-0.4-0.5c-0.9-0.2-1.8,0.1-2.6,0.1
					c0-0.6,0-1.3,0.5-1.4c0.6-0.1,1.1,0,1.7-0.3c0.2-0.1,0.1-0.4-0.1-0.4c-0.7-0.1-1.5-0.4-2.2-0.2c-1.1,0.3-1,1.9-1,2.8
					c0,0.2,0.2,0.5,0.4,0.5c0.9,0.2,1.7-0.1,2.6-0.1c0,0.4-0.1,0.8-0.5,0.8C607.5,254.8,607.1,254.6,606.6,254.7z M602,260.4
					c-1.4,0.8-2.5,2.3-2.4,3.9c0.1,1.8,2,2.2,3.5,2.1c0.3,0,0.5-0.2,0.5-0.5c0.1-0.8,0.2-2-0.8-2.4c-0.3-0.1-0.7-0.1-1-0.1
					c-0.4,0-0.8-0.1-1.1,0c-0.1,0-0.1,0-0.1,0.1c0.2-1.1,1-2.1,1.6-2.9C602.3,260.5,602.1,260.4,602,260.4z M603.5,229.4
					C603.5,229.4,603.5,229.4,603.5,229.4C603.5,229.4,603.5,229.4,603.5,229.4c-0.1,0.3-0.4,0.6-0.6,0.9c-0.2,0.2-0.1,0.6,0.2,0.7
					c0.2,0.1,0.5,0.2,0.8,0.2c0.2,0,0.6,0,0.9,0.1c-0.2,0.4-0.5,0.9-0.9,0.8c-0.6,0-1-0.3-1.5-0.1c-0.4,0.2-0.4,0.7,0,0.9
					c0.9,0.4,2.1,0.6,2.9-0.3c0.4-0.5,1.1-1.4,0.5-2c-0.4-0.4-1-0.4-1.5-0.5c0.2-0.4,0.4-1,0.1-1.3c-0.4-0.4-1.4-0.1-1.9-0.2
					c-0.2,0-0.3,0.3-0.1,0.4C602.7,229.2,603.1,229.3,603.5,229.4z M596,221.6c-0.9,1.2-1.2,2.9-2.3,4c-0.3,0.3-0.1,0.9,0.3,0.9
					c1.5,0.1,2.9,0.4,4.3,0.2c0.5-0.1,0.6-0.8,0-0.9c-1.1-0.1-2.2-0.3-3.4-0.4c0.8-1.3,1.1-2.8,1.9-4c0.2-0.2-0.1-0.5-0.3-0.4
					c-0.7,0.1-1.3,0.3-2,0.5c-0.2,0.1-0.1,0.3,0.1,0.3C595.2,221.6,595.6,221.6,596,221.6z M590,268.7c-0.3,0.5-0.8,1-0.7,1.6
					c0,0.2,0.3,0.3,0.5,0.3c0.7-0.2,0.9-1,1.2-1.6c0.4-0.8,0.6-1.6,0.8-2.4c0-0.2-0.2-0.4-0.4-0.4c-0.9,0.1-1.8,0.1-2.7,0.2
					c-0.3,0-0.3,0.4,0,0.4c0.7,0,1.4,0.1,2.1,0.1C590.6,267.5,590.3,268.1,590,268.7z M580.9,214.7c9.4-2.6,20.6,1.3,27.1,8.5
					c5,5.6,6.9,13.4,7,20.8c0.2,14.5-7.5,30.8-22.8,34.1c-17.5,3.8-32.4-11.2-35.2-27.4c-2.8-16.4,6.1-33,23-36.2c0.1,0,0.1,0,0.2,0
					C580.4,214.7,580.6,214.8,580.9,214.7z M583.9,220.5c-0.1,0.6-0.2,1.2,0,1.8c0.2,0.5,0.8,0.5,1,0c0.2-0.6,0.2-1.3,0.3-2
					c0.1-0.7,0.1-1.4,0.1-2.2c0-0.7-1-0.7-1,0C584.2,219,584.1,219.7,583.9,220.5z M581.7,265.5c-0.5-0.5-1.5-0.2-2.1-0.1
					c-0.2,0-0.4,0.3-0.4,0.5c0,1.2,0.2,2.4,0.4,3.6c-0.3,0.5-0.6,1-0.6,1.8c0,0.3,0.3,0.5,0.5,0.3c0.4-0.2,0.7-0.4,1.1-0.5
					c0.2-0.1,0.3-0.3,0.3-0.6c-0.1-0.5-0.2-1-0.3-1.5c0.1-0.2,0.3-0.4,0.3-0.6c0.1-0.2-0.2-0.4-0.4-0.3c0,0,0,0,0-0.1
					C580.8,267.4,582.5,266.2,581.7,265.5z M578.4,230.5c-16.3,10.1,0.1,41.7,13.3,29.8c2,2.2,4.2,3.4,6,2c1.6-1.2,1.9-3.4,1.5-5.9
					c0.1,0,0.2-0.1,0.3-0.2c5-5.9,7-13,2.5-19.8c-3.9-5.9-12.3-8.7-19.1-7.8c-1.5-0.7-3-0.7-4.4,0.4c-0.4,0.3-0.2,0.8,0.1,1
					C578.4,230.3,578.4,230.4,578.4,230.5z M576.1,224.2c-0.4,0.4-0.9,0.8-1.1,1.4c-0.3,0.6,0.3,1,0.8,0.7c0.6-0.5,1.6-1.4,1.9-2.1
					c0.3-0.8,0-1.4-0.5-2c0.3-0.5,0.4-1,0.3-1.6c0-0.1-0.1-0.3-0.2-0.3c-0.9-0.5-1.3,0.4-2.2,0.6c0,0,0,0.1,0,0.1
					c0.3,0,0.5,0,0.8-0.1c1.2-0.5,0.5,0.6,0.1,1c-0.2,0.2-0.2,0.6,0,0.8C576.6,223.3,576.7,223.6,576.1,224.2z"/>
				<path d="M563.7,312.3c0.5,0.2,1,0.4,1.5,0.7c0.3,0.2,0.1,0.6-0.2,0.5c-1.1-0.2-2.1-1.2-3-1.8c-0.1-0.1,0-0.3,0.1-0.2
					C562.6,311.8,563.2,312,563.7,312.3z"/>
				<path d="M562,255.3c-0.1,0.3-0.5,0.3-0.6,0c-0.2-0.6-0.1-1.3,0-1.9c0-0.6,0-1.2,0-1.8c0-0.4,0.6-0.4,0.6,0c0,0.7,0,1.4,0.1,2.1
					C562.1,254.2,562.2,254.8,562,255.3z"/>
				<path d="M563.7,319.2c-0.4,0.5-1.2,0.7-1.8,0.4c-0.6-0.2-0.9-0.7-1-1.3c0-0.2,0.3-0.3,0.4-0.1c0.2,0.4,0.5,0.6,1,0.6
					c0.4,0,0.7-0.2,1.1-0.3C563.7,318.4,563.9,318.9,563.7,319.2z"/>
				<path d="M560.5,241.4c0-0.6-0.1-1.1-0.2-1.7c-0.2-0.6,0.8-0.8,1-0.2c0.4,1.1,0.7,2.8,0.3,3.9c-0.1,0.5-0.9,0.5-1,0
					C560.4,242.7,560.5,242,560.5,241.4z"/>
				<path d="M561.5,324.6c-0.5-0.2-0.7-0.5-0.9-1c-0.1-0.1,0.1-0.3,0.2-0.1c0.4,0.7,1.5,0.4,2.1,0.3c0.6-0.1,0.7,0.7,0.2,0.9
					C562.6,324.9,562.1,324.8,561.5,324.6z"/>
				<path d="M580.2,213.3c0.1-0.1,0.2-0.1,0.3-0.2c8.1-2.8,19.5,0.3,25.9,5.8c5.3,4.6,8.8,11.2,9.8,18.1c1.9,12.4-2,27.6-11.6,36.3
					c-10.4,9.5-25.6,8.9-36.5,0.1C547.5,256.7,552.3,216.2,580.2,213.3z M580.2,214.5c-0.1,0-0.1,0-0.2,0
					c-16.9,3.2-25.8,19.9-23,36.2c2.8,16.2,17.7,31.1,35.2,27.4c15.3-3.3,23-19.6,22.8-34.1c-0.1-7.4-2-15.2-7-20.8
					c-6.4-7.2-17.6-11.1-27.1-8.5C580.6,214.8,580.4,214.7,580.2,214.5z"/>
				<radialGradient id="SVGID_22_" cx="320" cy="205.0001" r="542.4277" gradientUnits="userSpaceOnUse">
					<stop  offset="0" style="stop-color:#FFFFFF"/>
					<stop  offset="0.4054" style="stop-color:#FBFBFB"/>
					<stop  offset="0.7864" style="stop-color:#F0F0F0"/>
					<stop  offset="1" style="stop-color:#E6E6E6"/>
				</radialGradient>
				<path class="st21" d="M606.5,327.6c0.8,0,1.4,0.2,2,0.6c0.3,0.2,0.6-0.2,0.4-0.5c-0.6-0.8-1.3-1.3-2.2-1.4
					c-0.3-0.1-0.8,0.1-0.8,0.5c0,0.1,0,0.2,0,0.3C606,327.3,606.3,327.6,606.5,327.6z M605.9,330c-0.5-0.1-1.1,0.5-0.6,1
					c0.3,0.3,0.6,0.4,1,0.5c0.4,0.2,0.6,0.5,0.8,0.9c0.2,0.3,0.7,0.1,0.6-0.2C607.5,331.2,606.9,330.2,605.9,330z M605,319.5
					c-0.3,0.4-0.1,1.2,0.5,1c0.5-0.2,0.8-0.4,1.3-0.7c0.4-0.3,0.9-0.4,1.4-0.5c0.3-0.1,0.3-0.6,0-0.6
					C607.1,318.4,605.7,318.6,605,319.5z M603,334.1c-0.3,0-0.5,0.6-0.2,0.8c0.8,0.7,2,0.4,3,0.6c0.3,0.1,0.4-0.3,0.2-0.4
					c-0.4-0.3-0.8-0.5-1.3-0.6C604,334.2,603.5,334,603,334.1z M603.7,311.6c-0.3,0.4,0.1,0.8,0.5,0.7c0.6-0.1,1-0.6,1.4-0.9
					c0.5-0.3,1-0.6,1.5-0.7c0.3-0.1,0.2-0.4,0-0.5c-0.6-0.1-1.2,0-1.7,0.3C604.7,310.8,604,311.1,603.7,311.6z M570.6,338.4
					c0.2-0.3-0.1-0.7-0.4-0.4c-0.6,0.6-1.2,1.3-1.9,1.7c-0.2,0.1,0,0.5,0.2,0.3C569.3,339.7,570,339.1,570.6,338.4z M570.2,301.5
					c0-0.1-0.2-0.1-0.2,0c0,0.2-0.1,0.3-0.1,0.5c0,0.3,0.1,0.5,0.2,0.8c0.2,0.6,0.5,1.2,1,1.7c0.5,0.4,1-0.2,0.7-0.6
					c-0.3-0.4-0.6-0.9-0.9-1.3c-0.1-0.2-0.2-0.4-0.3-0.6C570.4,301.7,570.2,301.6,570.2,301.5z M565.5,331.5
					c-0.8,0.5-1.5,1.3-2.5,1.5c-0.4,0.1-0.3,0.5,0,0.6c1.2,0.1,2.4-0.4,3.1-1.4C566.4,331.8,565.9,331.2,565.5,331.5z M563,323.8
					c-0.6,0.1-1.7,0.4-2.1-0.3c-0.1-0.1-0.3,0-0.2,0.1c0.2,0.4,0.5,0.8,0.9,1c0.5,0.2,1.1,0.3,1.6,0.1
					C563.7,324.5,563.5,323.6,563,323.8z M565.3,305c0.6,1.1,2.1,2.3,3.4,2.2c0.3,0,0.4-0.4,0.2-0.5c-0.5-0.4-1.2-0.5-1.8-0.7
					c-0.6-0.3-1.1-0.6-1.6-1.1C565.4,304.7,565.2,304.8,565.3,305z M562.2,318.8c-0.4,0-0.8-0.3-1-0.6c-0.1-0.2-0.4-0.1-0.4,0.1
					c0.1,0.6,0.4,1.1,1,1.3c0.6,0.3,1.4,0.1,1.8-0.4c0.2-0.3,0.1-0.8-0.4-0.7C563,318.6,562.6,318.8,562.2,318.8z M564.3,308.3
					c0.4,0.9,1.4,1.6,2.5,1.6c0.4,0,0.5-0.6,0-0.7c-0.8-0.1-1.7-0.4-2.2-1.1C564.4,308,564.2,308.1,564.3,308.3z M564.3,328.5
					c-0.4,0-0.8,0.2-1.1,0.3c-0.5,0.1-1,0.1-1.5,0.3c-0.2,0.1-0.2,0.3,0,0.4c0.9,0.2,2.2,0.4,3-0.2
					C565,328.9,564.7,328.4,564.3,328.5z M605,315.1c-0.1,0.3,0.2,0.6,0.5,0.5c0.4-0.1,0.7-0.4,1-0.7c0.4-0.3,0.9-0.4,1.3-0.6
					c0.2,0,0.2-0.3,0-0.4C606.8,313.8,605.4,314,605,315.1z M601.7,309.4c-0.1,0.3,0.2,0.6,0.5,0.5c0.5-0.1,0.7-0.4,1.1-0.7
					c0.5-0.4,1-0.7,1.5-0.9c0.1-0.1,0.2-0.3,0-0.3C603.7,307.7,602,308.3,601.7,309.4z M600.4,336.2c-0.4,0-0.5,0.5-0.2,0.6
					c0.5,0.4,1.8,0.4,2,1.1c0,0.3,0.5,0.2,0.5,0C602.6,336.9,601.2,336.3,600.4,336.2z M601,305.9c-0.7,0.3-1.4,0.9-1.7,1.6
					c-0.2,0.4,0.3,0.7,0.7,0.5c0.6-0.2,1-0.8,1.5-1.2c0.5-0.4,0.9-0.8,1.4-1.1c0.1-0.1,0.1-0.4-0.1-0.3
					C602.1,305.4,601.6,305.6,601,305.9z M599.5,339.2c-0.4-0.5-0.7-1.1-1.2-1.4c-0.3-0.2-0.8,0.1-0.7,0.5c0.1,0.6,0.7,1,1.2,1.4
					c0.5,0.4,1,0.6,1.5,1c0.1,0.1,0.3-0.1,0.2-0.2C600.2,340,599.9,339.6,599.5,339.2z M606.8,323.3c0.4-0.1,0.9-0.2,1.3-0.2
					c0.2,0,0.3-0.3,0.2-0.4c-0.5-0.4-0.8-0.6-1.5-0.6c-0.7,0-1.6,0.3-1.9,1c-0.1,0.3,0.2,0.6,0.5,0.6
					C605.9,323.8,606.3,323.4,606.8,323.3z M597.9,304.1c-0.6,0.2-1.2,0.9-1.2,1.5c0,0.2,0.2,0.3,0.4,0.3c0.5-0.1,0.7-0.6,1.1-0.9
					c0.2-0.2,0.4-0.3,0.6-0.3c0.2-0.1,0.4-0.2,0.6-0.3c0.1,0,0.2-0.2,0-0.3c-0.2-0.1-0.4-0.2-0.7-0.2
					C598.5,303.9,598.2,304,597.9,304.1z M596.9,342.3c0.6-0.8,0.3-2.3-0.8-2.5c-0.4-0.1-0.6,0.3-0.4,0.6c0.4,0.5,0.9,1,0.7,1.7
					C596.5,342.4,596.8,342.5,596.9,342.3z M591.4,341.9c-0.4-0.4-1,0.1-0.6,0.6c0.4,0.5,0.6,1.3,0.4,2c-0.1,0.3,0.3,0.4,0.4,0.2
					C592.2,343.8,592.2,342.6,591.4,341.9z M590.3,300.9c-0.1,0.5,0.6,0.6,0.8,0.3c0.4-0.8,0.6-1.7,0.9-2.5c0.1-0.3-0.4-0.5-0.5-0.2
					C591,299.1,590.4,300,590.3,300.9z M586.7,343.1c0.4,0.6,0.6,1.3,0.4,2c-0.1,0.4,0.4,0.6,0.7,0.3c0.6-0.9,0.5-2.3-0.4-2.9
					C586.9,342.2,586.4,342.7,586.7,343.1z M585.8,299.4c0,0.5-0.2,1-0.2,1.5c0,0.5,0.6,0.7,0.9,0.3c0.6-1,0.4-2.3,0-3.4
					c-0.2-0.5-1-0.4-0.9,0.2C585.8,298.5,585.8,298.9,585.8,299.4z M596,301.9c-0.6,0.3-1.4,0.9-1.4,1.6c0,0.3,0.3,0.5,0.6,0.4
					c0.4-0.2,0.7-0.7,1.1-1c0.3-0.3,0.7-0.6,1.1-0.8c0.2-0.1,0.2-0.4,0-0.4C597,301.6,596.5,301.7,596,301.9z M583.5,300
					c0.2-0.8,0.2-1.7,0-2.4c-0.1-0.4-0.8-0.5-0.9,0c-0.2,0.8-0.2,1.7,0,2.4C582.7,300.4,583.4,300.5,583.5,300z M581.9,345.6
					c0.2-1,0.7-1.9,0.9-2.9c0.1-0.4-0.5-0.7-0.7-0.3c-0.5,1-0.7,2.1-0.5,3.2C581.6,345.7,581.9,345.7,581.9,345.6z M579.4,290.6
					c11.1,0.1,20,2.7,28.3,10.4c8.4,7.9,12.1,18.8,8.3,29.8c-6.7,19.4-30.9,30.1-48,17.5c-10.9-8-15-23.2-12.4-36
					c2.6-12.7,11.8-20.1,23.6-21.8C579.2,290.5,579.3,290.6,579.4,290.6z M577.7,341.5c-0.7,0.8-0.8,1.7-1,2.6
					c-0.1,0.4,0.3,0.5,0.5,0.2c0.2-0.3,0.4-0.6,0.5-1c0.2-0.4,0.5-0.9,0.7-1.3C578.7,341.6,578,341.2,577.7,341.5z M589.9,304.3
					c-0.7,0.5-1.4,1.1-2.1,1.7c0,0,0,0,0,0c-8.4-2.3-15.4,0.7-18.2,9.1c-1.8,5.4-2.1,16.4,4,19.3c-0.5,3.4,0.1,6.5,4.3,5.2
					c1.3-0.4,2.4-1.3,3.2-2.3c0,0.1,0.1,0.2,0.2,0.2c17.4,6.4,30-24,12.8-28.8c0.4-2.3-0.1-4.2-2.8-4.8c0-0.2-0.2-0.4-0.5-0.2
					c0,0-0.1,0.1-0.2,0.1c-0.1,0-0.2,0-0.3-0.1C590,303.6,589.8,304,589.9,304.3z M572.6,300.2c0,0.9,0.4,2.1,1.5,2.1
					c0.3,0,0.6-0.4,0.4-0.6c-0.4-0.6-0.9-0.8-0.9-1.6C573.5,299.6,572.6,299.7,572.6,300.2z M574.3,340.3c0.1-0.2-0.1-0.4-0.3-0.3
					c-0.4,0.2-0.6,0.6-0.8,0.9c-0.3,0.4-0.7,0.9-1.1,1.2c-0.1,0.1,0,0.3,0.1,0.2c0.4-0.2,0.7-0.5,1-0.8
					C573.5,341.2,574,340.8,574.3,340.3z M565,313.5c0.3,0.1,0.5-0.3,0.2-0.5c-0.5-0.3-1-0.4-1.5-0.7c-0.5-0.3-1.1-0.5-1.6-0.8
					c-0.1-0.1-0.2,0.1-0.1,0.2C562.9,312.3,563.9,313.3,565,313.5z M567.7,335.4c0.2-0.3-0.2-0.7-0.5-0.5c-0.8,0.5-1.7,1.1-2.3,1.8
					c-0.2,0.2,0.1,0.5,0.3,0.3C566,336.4,567.1,336.3,567.7,335.4z M578.4,301c0.1,0.4,0.8,0.3,0.7-0.1c-0.3-1-0.4-2-0.8-3
					c-0.1-0.2-0.5-0.1-0.4,0.1C578.1,298.9,578.1,300,578.4,301z"/>
				<path d="M607.7,301c-8.3-7.7-17.3-10.3-28.3-10.4c-0.1,0-0.2,0-0.2-0.1c-11.8,1.8-21,9.2-23.6,21.8c-2.6,12.9,1.5,28,12.4,36
					c17.2,12.6,41.4,1.9,48-17.5C619.8,319.8,616.2,308.9,607.7,301z M566.4,348.8c-20.9-17.3-14.9-60.8,16-59.3
					c4-0.3,7.8-0.3,11.9,1.2c19.7,7.1,32.3,29.1,19.1,47.9C602.8,353.8,582,361.8,566.4,348.8z"/>
				<radialGradient id="SVGID_23_" cx="404.7111" cy="205" r="432.9559" gradientUnits="userSpaceOnUse">
					<stop  offset="0" style="stop-color:#FFFFFF"/>
					<stop  offset="0.4054" style="stop-color:#FBFBFB"/>
					<stop  offset="0.7864" style="stop-color:#F0F0F0"/>
					<stop  offset="1" style="stop-color:#E6E6E6"/>
				</radialGradient>
				<path class="st22" d="M546.1,375c10.3-0.3,20.7-1.3,30.8-1.1c14.5,0.3,32.7,4.2,46-3.7c-0.4,2.5-1.3,4.6-2.9,5.9
					c-5.3-0.3-10.5,1.1-15.8,1.5c-5.9,0.4-11.8,0.5-17.7,0.4c-11.8-0.1-23.6-0.9-35.4-1.2c-1.6,0-3.3,0-4.9,0L546.1,375z"/>
				<radialGradient id="SVGID_24_" cx="319.9998" cy="205" r="542.429" gradientUnits="userSpaceOnUse">
					<stop  offset="0" style="stop-color:#FFFFFF"/>
					<stop  offset="0.4054" style="stop-color:#FBFBFB"/>
					<stop  offset="0.7864" style="stop-color:#F0F0F0"/>
					<stop  offset="1" style="stop-color:#E6E6E6"/>
				</radialGradient>
				<path class="st23" d="M515,56.3c0-1.3,0-2.7,0-4c8.3,0.8,16.8,0.3,25,0.2c9.1,0,18.2-0.1,27.3-0.2c17.6-0.1,35.1-0.2,52.7-0.2
					c0,0,0.1,0,0.1,0c0,1,0,1.9-0.1,2.8c-0.1,0-0.1,0-0.2,0c-17.8,1.8-35.7,2-53.5,1.8c-8.7-0.1-17.4-0.3-26.1-0.5
					C532,56.1,523.3,55.2,515,56.3z"/>
				<radialGradient id="SVGID_25_" cx="320.0002" cy="205.0001" r="542.4284" gradientUnits="userSpaceOnUse">
					<stop  offset="0" style="stop-color:#FFFFFF"/>
					<stop  offset="0.4054" style="stop-color:#FBFBFB"/>
					<stop  offset="0.7864" style="stop-color:#F0F0F0"/>
					<stop  offset="1" style="stop-color:#E6E6E6"/>
				</radialGradient>
				<path class="st24" d="M516,78.8c-0.1-1.4-0.2-2.9-0.3-4.3c6.2,0.8,12.9-0.9,19.2-0.8c10.2,0.1,20.3,1,30.5,1.3
					c9.8,0.3,19.7,0.4,29.5,0.3c4.9-0.1,9.8-0.3,14.7-0.7c3.5-0.3,7.1-1.1,10.6-1.2c0,1.7,0,3.3,0,5c-17.7,0-35.2,0.7-52.9,1.5
					c-8.9,0.4-17.7,0.7-26.6,0.5C532.5,80.2,524.2,79.1,516,78.8z"/>
				<radialGradient id="SVGID_26_" cx="320" cy="205" r="542.4285" gradientUnits="userSpaceOnUse">
					<stop  offset="0" style="stop-color:#FFFFFF"/>
					<stop  offset="0.4054" style="stop-color:#FBFBFB"/>
					<stop  offset="0.7864" style="stop-color:#F0F0F0"/>
					<stop  offset="1" style="stop-color:#E6E6E6"/>
				</radialGradient>
				<path class="st25" d="M536.7,258.4c0.7,1.2,0.4,2.9-0.5,3.9c-1.3,1.4-3.8,0.7-4.8-0.8c-0.6-0.9-0.5-2.1-0.1-3
					c0.3-0.5,0.7-0.9,1.1-1.2C534.1,257.5,535.7,256.7,536.7,258.4z"/>
				<radialGradient id="SVGID_27_" cx="320.0003" cy="205" r="542.4278" gradientUnits="userSpaceOnUse">
					<stop  offset="0" style="stop-color:#FFFFFF"/>
					<stop  offset="0.4054" style="stop-color:#FBFBFB"/>
					<stop  offset="0.7864" style="stop-color:#F0F0F0"/>
					<stop  offset="1" style="stop-color:#E6E6E6"/>
				</radialGradient>
				<path class="st26" d="M516,171.5c0-1.5,0-3.1,0-4.6c0.1,0.1,0.2,0.2,0.4,0.1c3.8-1,7.5-0.5,11.4-0.1c3.9,0.4,7.8,0.3,11.8,0.2
					c9.5-0.2,19-0.4,28.5-0.2c17.2,0.3,34.5,0.5,51.7-1.6c0,1.6,0,3.1,0,4.6c0,0.4,0,0.8,0,1.1c-18.2,0.2-36.4,0.4-54.6,0.4
					c-16.2-0.1-33,3.2-49.1,0.1C516.1,171.5,516.1,171.5,516,171.5z"/>
				<radialGradient id="SVGID_28_" cx="376.6917" cy="197.2225" r="451.9811" gradientUnits="userSpaceOnUse">
					<stop  offset="0" style="stop-color:#FFFFFF"/>
					<stop  offset="0.4054" style="stop-color:#FBFBFB"/>
					<stop  offset="0.7864" style="stop-color:#F0F0F0"/>
					<stop  offset="1" style="stop-color:#E6E6E6"/>
				</radialGradient>
				<path class="st27" d="M536.9,72.3c-0.6,0-1.2,0-1.7,0l0-2.5c10.1,0,20.4-1,30.3-1.2c18.2-0.4,36.5,0.7,54.7-0.4
					c0,1.2,0,2.5,0,3.7c-2.9,0.1-5.9,0.8-8.7,1.1c-4.9,0.5-9.8,0.7-14.7,0.8c-9.8,0.3-19.7,0-29.5-0.2
					C557.1,73.3,547,72.5,536.9,72.3z"/>
				<radialGradient id="SVGID_29_" cx="320.0003" cy="204.9998" r="542.428" gradientUnits="userSpaceOnUse">
					<stop  offset="0" style="stop-color:#FFFFFF"/>
					<stop  offset="0.4054" style="stop-color:#FBFBFB"/>
					<stop  offset="0.7864" style="stop-color:#F0F0F0"/>
					<stop  offset="1" style="stop-color:#E6E6E6"/>
				</radialGradient>
				<path class="st28" d="M532.3,312.2c1.7,0.1,3.1,0.8,4.2,2.1c0.8,1,1.2,2.7-0.2,3.4c-1.8,0.9-4.6,0-5.6-1.7
					C529.7,314.3,530.9,313,532.3,312.2z"/>
				<radialGradient id="SVGID_30_" cx="461.2756" cy="260.1333" r="225.6661" gradientUnits="userSpaceOnUse">
					<stop  offset="0" style="stop-color:#FFFFFF"/>
					<stop  offset="0.4054" style="stop-color:#FBFBFB"/>
					<stop  offset="0.7864" style="stop-color:#F0F0F0"/>
					<stop  offset="1" style="stop-color:#E6E6E6"/>
				</radialGradient>
				<path class="st29" d="M516.3,372.5c9.6,2.5,19.7,2.8,29.8,2.5l0,1.8c-6.4,0.2-12.8,1-19.3,1.1
					C522.2,377.9,517.9,377.1,516.3,372.5z"/>
				<radialGradient id="SVGID_31_" cx="319.9998" cy="205.0001" r="542.4288" gradientUnits="userSpaceOnUse">
					<stop  offset="0" style="stop-color:#FFFFFF"/>
					<stop  offset="0.4054" style="stop-color:#FBFBFB"/>
					<stop  offset="0.7864" style="stop-color:#F0F0F0"/>
					<stop  offset="1" style="stop-color:#E6E6E6"/>
				</radialGradient>
				<path class="st30" d="M534.3,337.7c1,0.2,1.9,0.7,2.5,1.5c1.8,2-0.5,3.8-2.4,4.5c-1.8,0.6-3.3-0.4-3.7-2.1
					c-0.3-1.4,0.3-2.7,1.3-3.6C532.8,337.8,533.5,337.6,534.3,337.7z"/>
				<radialGradient id="SVGID_32_" cx="320.0003" cy="205" r="542.4274" gradientUnits="userSpaceOnUse">
					<stop  offset="0" style="stop-color:#FFFFFF"/>
					<stop  offset="0.4054" style="stop-color:#FBFBFB"/>
					<stop  offset="0.7864" style="stop-color:#F0F0F0"/>
					<stop  offset="1" style="stop-color:#E6E6E6"/>
				</radialGradient>
				<path class="st31" d="M530.8,234.7c-0.5-1.8,0.4-3.6,1.7-4.7c0.1,0,0.2,0.1,0.3,0c1.9-0.4,3.3,0,3.9,2c0.4,1.5,0.2,3.4-0.9,4.5
					C534.3,238.3,531.4,236.6,530.8,234.7z"/>
				<radialGradient id="SVGID_33_" cx="320.0001" cy="205.0002" r="542.4277" gradientUnits="userSpaceOnUse">
					<stop  offset="0" style="stop-color:#FFFFFF"/>
					<stop  offset="0.4054" style="stop-color:#FBFBFB"/>
					<stop  offset="0.7864" style="stop-color:#F0F0F0"/>
					<stop  offset="1" style="stop-color:#E6E6E6"/>
				</radialGradient>
				<path class="st32" d="M531.8,289.8c-1.8-1.5-0.9-3.3,0.6-4.5c0,0,0.1,0.1,0.2,0.1c1.4,0.5,2.7,0.5,3.4,2c0.5,1,0.5,2.3-0.3,3.1
					C534.6,291.7,532.8,290.5,531.8,289.8z"/>
				<path d="M530.1,261.3c-0.5-1.9,0.4-4,2-4.7c0,0,0,0,0,0c1.8-1.7,5.2-0.3,6.1,1.7c0.8,1.9,0.1,4.5-1.7,5.5
					C534.1,265,530.8,263.9,530.1,261.3z M531.4,258.6c-0.5,0.9-0.5,2.1,0.1,3c0.9,1.5,3.5,2.2,4.8,0.8c0.9-1,1.2-2.7,0.5-3.9
					c-1-1.7-2.7-0.9-4.2-1C532.1,257.7,531.7,258,531.4,258.6z"/>
				<path d="M532.4,285.3c-1.5,1.1-2.4,2.9-0.6,4.5c0.9,0.8,2.8,2,3.9,0.8c0.8-0.8,0.8-2.2,0.3-3.1c-0.8-1.5-2-1.5-3.4-2
					C532.5,285.4,532.5,285.3,532.4,285.3z M530.1,289.4c-0.5-1-0.6-2.3,0.1-3.3c0.6-0.8,1.3-1.2,2-1.4c0.1-0.2,0.2-0.3,0.4-0.4
					c2-0.4,4.2,1.3,4.8,3.2c0.4,1.5,0.1,3.6-1.4,4.4C533.9,292.9,531,291.3,530.1,289.4z"/>
				<path d="M532.6,230c-1.4,1.2-2.2,2.9-1.7,4.7c0.5,1.9,3.5,3.5,5.1,1.8c1.1-1.1,1.3-3.1,0.9-4.5c-0.6-2-2-2.4-3.9-2
					C532.8,230.1,532.7,230.1,532.6,230z M529.8,234.7c-0.3-2.4,1-5.2,3.4-5.9c4.7-1.3,6.8,6.9,2.8,9
					C533.6,239.1,530.2,237.4,529.8,234.7z"/>
				<path d="M532.1,338c-1,0.9-1.6,2.2-1.3,3.6c0.4,1.8,1.9,2.8,3.7,2.1c1.9-0.6,4.2-2.4,2.4-4.5c-0.7-0.8-1.5-1.3-2.5-1.5
					C533.5,337.6,532.8,337.8,532.1,338z M529.8,342c-0.3-1.5,0.1-3.2,1.2-4.2c-0.1-0.2-0.1-0.5,0.1-0.6c0.9-1,2.9-0.9,4.1-0.5
					c1.2,0.4,2.3,1.1,3,2.2c1.7,2.8-0.5,5-3.2,5.8C532.7,345.4,530.2,344.5,529.8,342z"/>
				<path d="M536.5,314.4c-1.1-1.4-2.5-2-4.2-2.1c-1.4,0.8-2.6,2-1.6,3.8c1,1.7,3.8,2.6,5.6,1.7C537.8,317,537.3,315.4,536.5,314.4z
					 M529.4,315.8c-0.5-1.8,0.5-3.6,2.1-4.3c0-0.3,0.3-0.6,0.6-0.6c2.4-0.2,5.1,1.5,6,3.7c0.8,1.9,0.3,4.1-2.1,4.5
					C533.5,319.5,530.1,318.6,529.4,315.8z"/>
				<radialGradient id="SVGID_34_" cx="319.9998" cy="205" r="542.4277" gradientUnits="userSpaceOnUse">
					<stop  offset="0" style="stop-color:#FFFFFF"/>
					<stop  offset="0.4054" style="stop-color:#FBFBFB"/>
					<stop  offset="0.7864" style="stop-color:#F0F0F0"/>
					<stop  offset="1" style="stop-color:#E6E6E6"/>
				</radialGradient>
				<path class="st33" d="M516.4,183.9c-0.2,0-0.3,0.2-0.3,0.3H516c0-1.9,0-3.8,0-5.8c16.5,2.7,33.7,1.9,50.3,1.5
					c17.9-0.5,35.8-1.3,53.7-0.8c0,1.3,0,2.6,0.1,3.9c-17,0.5-34,1.1-51,1.4C551.5,184.7,533.9,183.5,516.4,183.9z"/>
				<radialGradient id="SVGID_35_" cx="320.0002" cy="205" r="542.4282" gradientUnits="userSpaceOnUse">
					<stop  offset="0" style="stop-color:#FFFFFF"/>
					<stop  offset="0.4054" style="stop-color:#FBFBFB"/>
					<stop  offset="0.7864" style="stop-color:#F0F0F0"/>
					<stop  offset="1" style="stop-color:#E6E6E6"/>
				</radialGradient>
				<path class="st34" d="M532.1,256.5c-1.6,0.7-2.5,2.9-2,4.7c0.7,2.6,4.1,3.8,6.3,2.5c1.8-1,2.5-3.6,1.7-5.5
					C537.3,256.2,533.9,254.8,532.1,256.5C532.1,256.5,532.1,256.5,532.1,256.5z M533.7,266.4c-2.9-0.1-4.7-3.2-5.4-5.7
					c-0.8-3.1,0.6-5.9,3.8-6.5c0.6-0.1,1.3-0.2,1.9-0.2c2.6,0,5,1.1,6.4,3.7C542.5,261.7,537.7,266.6,533.7,266.4z"/>
				<radialGradient id="SVGID_36_" cx="320.0005" cy="205" r="542.4271" gradientUnits="userSpaceOnUse">
					<stop  offset="0" style="stop-color:#FFFFFF"/>
					<stop  offset="0.4054" style="stop-color:#FBFBFB"/>
					<stop  offset="0.7864" style="stop-color:#F0F0F0"/>
					<stop  offset="1" style="stop-color:#E6E6E6"/>
				</radialGradient>
				<path class="st35" d="M533.2,228.8c-2.4,0.6-3.7,3.4-3.4,5.9c0.3,2.7,3.8,4.5,6.2,3.2C540,235.7,537.9,227.5,533.2,228.8z
					 M535,239.1c-4,1.3-6.9-2.2-7.1-5.9c-0.2-3,1.3-5.2,3.8-6.1c1.2-0.2,2.3-0.5,3.6-0.1c1.7,0.4,2.8,1.9,3.6,3.3
					C540.7,234,538.8,237.9,535,239.1z"/>
				<radialGradient id="SVGID_37_" cx="319.9998" cy="205" r="542.4292" gradientUnits="userSpaceOnUse">
					<stop  offset="0" style="stop-color:#FFFFFF"/>
					<stop  offset="0.4054" style="stop-color:#FBFBFB"/>
					<stop  offset="0.7864" style="stop-color:#F0F0F0"/>
					<stop  offset="1" style="stop-color:#E6E6E6"/>
				</radialGradient>
				<path class="st36" d="M529.1,288.8c-0.9-2.5,0-4.6,1.9-5.9c0,0,0.1,0,0.1,0c3.2-0.3,6.1,0.4,8,3.2c2.1,3.1,0.1,5.9-3.1,6.8
					C532.8,293.8,530.1,291.6,529.1,288.8z M530.2,286.1c-0.7,0.9-0.6,2.2-0.1,3.3c0.9,1.9,3.8,3.5,5.9,2.5c1.6-0.8,1.9-2.9,1.4-4.4
					c-0.5-1.9-2.8-3.6-4.8-3.2c-0.2,0-0.3,0.2-0.4,0.4C531.4,285,530.8,285.4,530.2,286.1z"/>
				<radialGradient id="SVGID_38_" cx="320" cy="204.9995" r="542.4279" gradientUnits="userSpaceOnUse">
					<stop  offset="0" style="stop-color:#FFFFFF"/>
					<stop  offset="0.4054" style="stop-color:#FBFBFB"/>
					<stop  offset="0.7864" style="stop-color:#F0F0F0"/>
					<stop  offset="1" style="stop-color:#E6E6E6"/>
				</radialGradient>
				<path class="st37" d="M536.6,319.4c-6.9,3.2-10.6-5.4-6.8-9.4h0c3.4-1,6.3-1.6,8.9,1.5C541.1,314.5,539.8,317.9,536.6,319.4z
					 M532.1,310.9c-0.4,0-0.6,0.3-0.6,0.6c-1.6,0.6-2.6,2.4-2.1,4.3c0.7,2.9,4.2,3.8,6.7,3.3c2.3-0.4,2.9-2.6,2.1-4.5
					C537.2,312.4,534.5,310.7,532.1,310.9z"/>
				<path d="M531,282.9c-1.9,1.2-2.8,3.3-1.9,5.9c1,2.8,3.8,5,6.9,4.1c3.2-0.9,5.3-3.7,3.1-6.8c-1.9-2.8-4.8-3.5-8-3.2
					C531,282.9,531,282.9,531,282.9z M535.8,294.3c-7.1,0.8-11-10.3-4.5-12.2c3.6-1.3,8.2,0.9,9.5,4.5
					C542.3,290.3,539.8,293.8,535.8,294.3z"/>
				<path d="M534.7,267.4c-6.3,0.5-9.9-9.4-5.7-12.8c-0.1-0.2-0.1-0.3,0.1-0.5c4-3.4,10.6-1.4,12.6,3.3
					C543.5,261.8,539,267.1,534.7,267.4z M528.4,260.7c0.6,2.5,2.5,5.5,5.4,5.7c3.9,0.2,8.8-4.7,6.7-8.7c-1.4-2.6-3.8-3.7-6.4-3.7
					c-0.6,0-1.3,0.1-1.9,0.2C529,254.9,527.6,257.6,528.4,260.7z"/>
				<path d="M527.8,233.3c0.3,3.6,3.1,7.2,7.1,5.9c3.8-1.2,5.7-5.1,3.8-8.8c-0.7-1.4-1.9-2.9-3.6-3.3c-1.3-0.4-2.4-0.1-3.6,0.1
					C529.1,228.1,527.6,230.3,527.8,233.3z M534.6,240c-8.1,1.2-9.7-10.7-4.3-13.2c0-0.1,0-0.1,0.1-0.2c3.5-3,8.6,0.4,9.8,4.1
					C541.6,235.1,539.3,239.3,534.6,240z"/>
				<path d="M529.8,310c-3.8,4-0.1,12.6,6.8,9.4c3.3-1.5,4.5-4.9,2.1-7.9C536.1,308.4,533.2,309,529.8,310L529.8,310z M527.5,316.3
					c-1-3.9,0.8-7.8,4.9-8.6c0.1,0,0.2,0.1,0.2,0.2c2.9-0.5,6.2,0.8,7.7,3.4c2.1,3.6,0.7,7.7-3.2,9.1
					C533.1,321.8,528.6,320.8,527.5,316.3z"/>
				<radialGradient id="SVGID_39_" cx="320.0005" cy="204.9996" r="542.4278" gradientUnits="userSpaceOnUse">
					<stop  offset="0" style="stop-color:#FFFFFF"/>
					<stop  offset="0.4054" style="stop-color:#FBFBFB"/>
					<stop  offset="0.7864" style="stop-color:#F0F0F0"/>
					<stop  offset="1" style="stop-color:#E6E6E6"/>
				</radialGradient>
				<path class="st38" d="M531,337.8c-1.1,1-1.5,2.6-1.2,4.2c0.5,2.5,2.9,3.4,5.2,2.7c2.6-0.9,4.9-3,3.2-5.8c-0.7-1.1-1.8-1.8-3-2.2
					c-1.2-0.4-3.2-0.5-4.1,0.5C530.9,337.4,530.9,337.6,531,337.8z M532.4,346.6c-2.8-0.5-4.5-3.3-4.6-5.9c-0.2-2.4,1.1-4.1,3-5.1
					c0,0,0,0,0.1,0c3.8-0.6,7.8,0.1,8.9,4.4C540.8,344.1,536,347.3,532.4,346.6z"/>
				<path d="M530.8,335.6c-1.8,1-3.1,2.7-3,5.1c0.2,2.6,1.9,5.4,4.6,5.9c3.6,0.7,8.4-2.6,7.3-6.6C538.6,335.8,534.6,335,530.8,335.6
					C530.8,335.6,530.8,335.6,530.8,335.6z M533,347.7c-3.5-0.4-6.1-3.5-6.1-7c0-2.7,1.4-4.5,3.4-5.5c0-0.1,0.1-0.3,0.2-0.4
					c3.9-2,9.6,0.4,10.3,4.9C541.6,344.1,537.4,348.2,533,347.7z"/>
				<radialGradient id="SVGID_40_" cx="319.9999" cy="205.0002" r="542.4282" gradientUnits="userSpaceOnUse">
					<stop  offset="0" style="stop-color:#FFFFFF"/>
					<stop  offset="0.4054" style="stop-color:#FBFBFB"/>
					<stop  offset="0.7864" style="stop-color:#F0F0F0"/>
					<stop  offset="1" style="stop-color:#E6E6E6"/>
				</radialGradient>
				<path class="st39" d="M516,371.6c-0.5-2-0.5-4.1-0.4-6.2c9.1,1.1,18.8,0.4,28,0.8c10.1,0.5,20.2,1.2,30.4,1.6
					c9.4,0.4,18.9,0.4,28.3-0.1c4.4-0.3,8.8-0.7,13.2-1.3c2-0.3,5.9-0.1,7.7-1.4c0,1.4-0.1,2.8-0.2,4.1c-0.1,0-0.3-0.1-0.4,0
					c-13.3,8-32,3.9-46.7,3.6c-9.7-0.2-19.5,0.5-29.2,0.8C536.3,373.6,526.2,372.9,516,371.6z"/>
				<radialGradient id="SVGID_41_" cx="320.0001" cy="205" r="542.4285" gradientUnits="userSpaceOnUse">
					<stop  offset="0" style="stop-color:#FFFFFF"/>
					<stop  offset="0.4054" style="stop-color:#FBFBFB"/>
					<stop  offset="0.7864" style="stop-color:#F0F0F0"/>
					<stop  offset="1" style="stop-color:#E6E6E6"/>
				</radialGradient>
				<path class="st40" d="M532.4,307.7c-4.1,0.8-5.9,4.7-4.9,8.6c1.2,4.5,5.6,5.5,9.5,4.1c4-1.5,5.3-5.5,3.2-9.1
					c-1.5-2.5-4.8-3.9-7.7-3.4C532.5,307.8,532.5,307.7,532.4,307.7z M530.4,226.8c-5.4,2.5-3.8,14.4,4.3,13.2c4.6-0.7,7-5,5.6-9.3
					c-1.2-3.7-6.2-7.1-9.8-4.1C530.4,226.7,530.4,226.7,530.4,226.8z M529,254.7c-4.2,3.4-0.6,13.2,5.7,12.8c4.3-0.3,8.8-5.6,7-9.9
					c-2-4.7-8.6-6.7-12.6-3.3C528.9,254.4,528.9,254.5,529,254.7z M531.3,282c-6.5,1.9-2.6,13,4.5,12.2c4-0.4,6.5-4,5-7.7
					C539.4,282.9,534.9,280.7,531.3,282z M526.9,340.7c0,3.5,2.7,6.6,6.1,7c4.4,0.5,8.6-3.6,7.9-7.9c-0.8-4.6-6.4-7-10.3-4.9
					c-0.2,0.1-0.2,0.2-0.2,0.4C528.3,336.2,526.9,338,526.9,340.7z M515.1,351.9c-1.1-9.5-1.4-19-1.1-28.7
					c0.2-9.9,1.9-20.5,0.9-30.4c0-0.1,0.1-0.1,0.1-0.3c0.7-14.3,0-28.8,0.3-43.2c0.3-11.3,0.9-22.6,0.9-34
					c5.7,0.1,11.4-0.6,17.1-0.6c3.3,0,6.7,0.5,9.6,2.2c3.4,2,4.2,6.2,4.8,9.8c-0.4,8.8,0.1,17.6,0,26.4c0,9.1-0.4,18.2-0.3,27.3
					c0,9-0.2,18.1-0.2,27.2c0,4.5,0.1,9,0.3,13.6c0.2,4-0.4,8-0.2,12c0,0.3,0.2,0.4,0.5,0.5c0.1,5.2,1,10.9-2.8,14.8
					c-3.4,3.4-10.3,3.6-14.8,4c-4.9,0.5-9.9,0.3-14.7-0.8c-0.1,0-0.2,0.1-0.2,0.1L515.1,351.9z"/>
				<radialGradient id="SVGID_42_" cx="320.0001" cy="205" r="542.4269" gradientUnits="userSpaceOnUse">
					<stop  offset="0" style="stop-color:#FFFFFF"/>
					<stop  offset="0.4054" style="stop-color:#FBFBFB"/>
					<stop  offset="0.7864" style="stop-color:#F0F0F0"/>
					<stop  offset="1" style="stop-color:#E6E6E6"/>
				</radialGradient>
				<path class="st41" d="M517,97.8c-0.1-1.7-0.1-3.5-0.2-5.2c16.1,3.3,33.3,1,49.6,0.6c17.7-0.4,35.5,0.9,53.2-1.7
					c0.3,0,0.4-0.3,0.4-0.5h0.2c0,1.7,0,3.4,0,5c-16.8-0.6-33.7,0.5-50.5,1C552.1,97.5,534.5,97.1,517,97.8z"/>
				<radialGradient id="SVGID_43_" cx="320.0003" cy="205" r="542.4285" gradientUnits="userSpaceOnUse">
					<stop  offset="0" style="stop-color:#FFFFFF"/>
					<stop  offset="0.4054" style="stop-color:#FBFBFB"/>
					<stop  offset="0.7864" style="stop-color:#F0F0F0"/>
					<stop  offset="1" style="stop-color:#E6E6E6"/>
				</radialGradient>
				<path class="st42" d="M515.1,61.1c0-1.4-0.1-2.9-0.1-4.3c0,0,0,0,0,0c8.2,1.1,16.9,0.6,25.2,0.7c9.3,0.2,18.6,0.4,28,0.6
					c17.3,0.2,34.6-0.1,51.9-1.9c0,1.8,0,3.7,0,5.5c-18,0-36.1,1-54.1,0.6c-8.8-0.2-17.4-0.5-26.2-0.3
					C531.5,62,523.3,61.1,515.1,61.1z"/>
				<radialGradient id="SVGID_44_" cx="319.9997" cy="205" r="542.4285" gradientUnits="userSpaceOnUse">
					<stop  offset="0" style="stop-color:#FFFFFF"/>
					<stop  offset="0.4054" style="stop-color:#FBFBFB"/>
					<stop  offset="0.7864" style="stop-color:#F0F0F0"/>
					<stop  offset="1" style="stop-color:#E6E6E6"/>
				</radialGradient>
				<path class="st43" d="M515.8,197.9c0-1.8,0-3.5,0.1-5.3c16.8-1.6,33.5-1.2,50.4-1.1c18,0.1,35.9-1.3,53.9-1.4c0,0.5,0,1,0,1.5
					c0,1.5,0,3.1,0,4.6C585.6,200.7,550.2,191.3,515.8,197.9z"/>
				<radialGradient id="SVGID_45_" cx="319.9998" cy="204.9999" r="542.4274" gradientUnits="userSpaceOnUse">
					<stop  offset="0" style="stop-color:#FFFFFF"/>
					<stop  offset="0.4054" style="stop-color:#FBFBFB"/>
					<stop  offset="0.7864" style="stop-color:#F0F0F0"/>
					<stop  offset="1" style="stop-color:#E6E6E6"/>
				</radialGradient>
				<path class="st44" d="M517.3,108c0-1.4,0-2.7-0.1-4.1c0,0,0.1,0,0.1,0c7,1.1,14.4,0.6,21.5,0.4c8.8-0.3,17.7-0.9,26.5-1.3
					c18.2-0.7,36.5,1.8,54.7,0.2c0,1.9,0,3.8-0.1,5.7c-18.4-0.1-36.8-1.2-55.3-1.3c-15.8-0.1-31.5,1.3-47.3,0.4
					C517.3,107.9,517.3,107.9,517.3,108z"/>
				<radialGradient id="SVGID_46_" cx="320" cy="205.0002" r="542.4286" gradientUnits="userSpaceOnUse">
					<stop  offset="0" style="stop-color:#FFFFFF"/>
					<stop  offset="0.4054" style="stop-color:#FBFBFB"/>
					<stop  offset="0.7864" style="stop-color:#F0F0F0"/>
					<stop  offset="1" style="stop-color:#E6E6E6"/>
				</radialGradient>
				<path class="st45" d="M517.3,108.5c6.6,1.8,13.8,1.5,20.7,1.3c8.3-0.2,16.5-0.9,24.7-0.9c19.1-0.1,38.2,1.2,57.2,1.3
					c0,0.8,0,1.6,0,2.3c-17.3,0-34.5-0.3-51.8-0.4c-9,0-18,0-27,0.3c-7.9,0.2-16.1,0.1-23.9,1.3C517.3,112,517.3,110.2,517.3,108.5
					C517.3,108.5,517.3,108.5,517.3,108.5z"/>
				<radialGradient id="SVGID_47_" cx="319.9995" cy="204.9999" r="542.4285" gradientUnits="userSpaceOnUse">
					<stop  offset="0" style="stop-color:#FFFFFF"/>
					<stop  offset="0.4054" style="stop-color:#FBFBFB"/>
					<stop  offset="0.7864" style="stop-color:#F0F0F0"/>
					<stop  offset="1" style="stop-color:#E6E6E6"/>
				</radialGradient>
				<path class="st46" d="M517.1,125.7c0-1.7,0.1-3.3,0.1-4.9c8.1,1.2,16.5,1,24.6,1c9.6,0,19.3-0.1,28.9-0.2
					c16.2-0.1,33.2,2.4,49.2-0.7c0,1.8,0,3.7,0,5.6v0.1c-17-0.1-33.7-1.2-50.6-0.3C551.8,127.1,534.7,127.8,517.1,125.7
					C517.1,125.7,517.1,125.7,517.1,125.7z"/>
				<radialGradient id="SVGID_48_" cx="320.0002" cy="205" r="542.4277" gradientUnits="userSpaceOnUse">
					<stop  offset="0" style="stop-color:#FFFFFF"/>
					<stop  offset="0.4054" style="stop-color:#FBFBFB"/>
					<stop  offset="0.7864" style="stop-color:#F0F0F0"/>
					<stop  offset="1" style="stop-color:#E6E6E6"/>
				</radialGradient>
				<path class="st47" d="M516.3,152.6c0-1.9,0.1-3.7,0.1-5.6c0.1,0.1,0.2,0.1,0.3,0.1c16.7-1.3,33.2,0,49.9,0.9
					c17.7,1,35.4,0,53.1-0.4c0,0,0.1,0,0.1,0c0,1.5,0,3,0,4.5c0,0,0,0,0,0c-17.2,0.3-34.3,0.1-51.5,0c-17.1-0.1-34.4-0.7-51.5,0.2
					c-0.2,0-0.3,0.2-0.3,0.4H516.3z"/>
				<radialGradient id="SVGID_49_" cx="320.0003" cy="205" r="542.4266" gradientUnits="userSpaceOnUse">
					<stop  offset="0" style="stop-color:#FFFFFF"/>
					<stop  offset="0.4054" style="stop-color:#FBFBFB"/>
					<stop  offset="0.7864" style="stop-color:#F0F0F0"/>
					<stop  offset="1" style="stop-color:#E6E6E6"/>
				</radialGradient>
				<path class="st48" d="M516.5,146.1c0-1.5,0.1-3,0.1-4.5c0-0.4,0-0.9,0-1.3c17.4,0.2,34.8-0.2,52.2,0.4c17,0.6,34,0.8,51-1
					c0,2.2,0,4.3,0,6.5c0,0,0,0,0,0c-17.7,0.4-35.4,1.3-53.1,0.4c-16.5-0.9-33.6-3.3-50-0.6C516.6,146.1,516.5,146.1,516.5,146.1z"
					/>
				<radialGradient id="SVGID_50_" cx="478.4409" cy="193.6843" r="220.316" gradientUnits="userSpaceOnUse">
					<stop  offset="0" style="stop-color:#FFFFFF"/>
					<stop  offset="0.4054" style="stop-color:#FBFBFB"/>
					<stop  offset="0.7864" style="stop-color:#F0F0F0"/>
					<stop  offset="1" style="stop-color:#E6E6E6"/>
				</radialGradient>
				<path class="st49" d="M515.7,73.3c-0.1-1.8-0.2-3.7-0.3-5.6c6.4,1.4,13.1,1.9,19.8,1.9l0,2.5C528.6,72.2,522.2,73.3,515.7,73.3z
					"/>
				<radialGradient id="SVGID_51_" cx="319.9998" cy="205.0001" r="542.4294" gradientUnits="userSpaceOnUse">
					<stop  offset="0" style="stop-color:#FFFFFF"/>
					<stop  offset="0.4054" style="stop-color:#FBFBFB"/>
					<stop  offset="0.7864" style="stop-color:#F0F0F0"/>
					<stop  offset="1" style="stop-color:#E6E6E6"/>
				</radialGradient>
				<path class="st50" d="M516.4,85.9C516.4,85.9,516.4,85.9,516.4,85.9c-0.1-2.2-0.3-4.4-0.4-6.6c7.4,1.8,15.3,1.9,22.8,2.1
					c8.8,0.3,17.7,0,26.6-0.4c18.3-0.7,36.5-1.6,54.8-1.6c0,1.2,0,2.3,0,3.5c0,0.5,0,1.1,0,1.6c-16.9-0.1-33.8,0.1-50.8,0.4
					c-8.5,0.1-17,0.3-25.5,0.4C534.8,85.5,525.5,85.1,516.4,85.9z"/>
				<radialGradient id="SVGID_52_" cx="320" cy="204.9999" r="542.4276" gradientUnits="userSpaceOnUse">
					<stop  offset="0" style="stop-color:#FFFFFF"/>
					<stop  offset="0.4054" style="stop-color:#FBFBFB"/>
					<stop  offset="0.7864" style="stop-color:#F0F0F0"/>
					<stop  offset="1" style="stop-color:#E6E6E6"/>
				</radialGradient>
				<path class="st51" d="M515.6,365c0.1-1.7,0.3-3.4,0.3-5.1c2.1,2.3,5.7,2.6,8.7,2.8c5,0.3,10.1-0.2,15.2-0.3
					c12.6-0.2,25.1,0.8,37.6,1.2c9.2,0.3,18.4,0.4,27.6-0.4c4.8-0.4,14.6-0.7,17.3-5.8c0.1-0.2,0-0.4-0.1-0.5
					c0.2-0.4,0.3-0.8,0.4-1.1c0.1,2.3,0.3,5,0.4,7.9c-0.2,0-0.3,0-0.5,0.2c-1.8,1.8-8.7,1.7-11.2,2c-4.9,0.6-9.9,0.9-14.8,1.1
					c-9.5,0.4-18.9,0-28.4-0.4c-8.9-0.4-17.7-1.1-26.6-1.5C533.3,364.5,523.9,363.4,515.6,365z"/>
				<radialGradient id="SVGID_53_" cx="320.0003" cy="205" r="542.4276" gradientUnits="userSpaceOnUse">
					<stop  offset="0" style="stop-color:#FFFFFF"/>
					<stop  offset="0.4054" style="stop-color:#FBFBFB"/>
					<stop  offset="0.7864" style="stop-color:#F0F0F0"/>
					<stop  offset="1" style="stop-color:#E6E6E6"/>
				</radialGradient>
				<path class="st52" d="M516.1,166.2c0-2.2,0.1-4.4,0.1-6.6h0c0,0.1,0.1,0.2,0.2,0.2c17,0.8,34.2,0.1,51.2-0.1
					c17.4-0.2,34.8-0.3,52.2-0.3c0,1.5,0,3,0,4.6c-18.3,2.4-36.9,2.1-55.3,1.7c-8.9-0.2-17.8,0.2-26.8,0.3c-6.8,0.1-15-2.1-21.5,0.2
					C516.2,166.1,516.2,166.1,516.1,166.2z"/>
				<radialGradient id="SVGID_54_" cx="319.9998" cy="205" r="542.4289" gradientUnits="userSpaceOnUse">
					<stop  offset="0" style="stop-color:#FFFFFF"/>
					<stop  offset="0.4054" style="stop-color:#FBFBFB"/>
					<stop  offset="0.7864" style="stop-color:#F0F0F0"/>
					<stop  offset="1" style="stop-color:#E6E6E6"/>
				</radialGradient>
				<path class="st53" d="M569.6,158.8c-17.7,0.2-35.5-0.3-53.2,0.6c-0.1,0-0.2,0.1-0.2,0.2h0c0-2.3,0.1-4.7,0.1-7h0.1
					c0,0.2,0.1,0.3,0.3,0.3c17.1,0.9,34.4,0.3,51.5,0.2c17.2-0.1,34.4-0.3,51.5,0c0,0,0.1,0,0.1,0c0,1.8,0,3.6,0,5.4
					C603.1,158.5,586.3,158.6,569.6,158.8z"/>
				<radialGradient id="SVGID_55_" cx="320.0003" cy="205" r="542.427" gradientUnits="userSpaceOnUse">
					<stop  offset="0" style="stop-color:#FFFFFF"/>
					<stop  offset="0.4054" style="stop-color:#FBFBFB"/>
					<stop  offset="0.7864" style="stop-color:#F0F0F0"/>
					<stop  offset="1" style="stop-color:#E6E6E6"/>
				</radialGradient>
				<path class="st54" d="M515.9,191.7c0-2.5,0-5,0.1-7.5h0.1c0,0.2,0.1,0.3,0.3,0.4c16.5,2.3,34,1.3,50.7,1c17.7-0.3,35.3-1,53-1.5
					c0,1.6,0,3.2,0.1,4.8c-18,0.1-35.9,1.4-53.8,1.4C549.6,190.3,532.5,188.9,515.9,191.7z"/>
				<radialGradient id="SVGID_56_" cx="319.9998" cy="205" r="542.4291" gradientUnits="userSpaceOnUse">
					<stop  offset="0" style="stop-color:#FFFFFF"/>
					<stop  offset="0.4054" style="stop-color:#FBFBFB"/>
					<stop  offset="0.7864" style="stop-color:#F0F0F0"/>
					<stop  offset="1" style="stop-color:#E6E6E6"/>
				</radialGradient>
				<path class="st55" d="M568.3,273.4c10.8,8.7,26,9.3,36.5-0.1c9.5-8.7,13.5-23.8,11.6-36.3c-1.1-6.9-4.5-13.5-9.8-18.1
					c-6.4-5.6-17.8-8.6-25.9-5.8c-0.1,0.1-0.2,0.1-0.3,0.2C552.3,216.2,547.5,256.7,568.3,273.4z M566.4,348.8
					c15.5,12.9,36.4,5,47-10.2c13.2-18.7,0.6-40.7-19.1-47.9c-4.1-1.5-7.8-1.6-11.9-1.2C551.5,288.1,545.6,331.5,566.4,348.8z
					 M516.1,359.2c-0.4-2.4-0.7-4.9-1-7.3l0.1,0c0,0.1,0,0.1,0.1,0.1c5.2,2.2,10.8,1.9,16.3,1.5c4.5-0.4,9.3-0.9,13.2-3.4
					c6.1-3.9,4.4-14.6,4-20.6c0-0.1,0-0.2-0.1-0.2c0.6-6.5-0.5-13.3-0.8-19.7c-0.4-9.7-0.4-19.4,0-29.1c0.7-17.8,2.8-36.5,0.5-54.2
					c0.8-17.1-21.2-12.3-32.4-11.3c0-2.9,0-5.8-0.2-8.7c0-0.2-0.1-0.3-0.2-0.4v-0.3c0,0,0,0,0,0c17.4-1.9,34.7-0.3,52.1-0.1
					c17.5,0.1,35.1,0.1,52.6,0.1c0.1,1.6,0.3,3.3,0.6,4.9c0.1,0.3,0.3,0.5,0.5,0.5c0.5,15.7,1.7,31.2,1.6,46.9
					c-0.1,16-1.6,32.1-1.1,48.1c0,0.3,0.2,0.4,0.5,0.4c-0.1,9.4-0.4,19-0.1,28.5c0.3,7.3,2,16.6-1.8,23.2c-0.1,0.1-0.1,0.2-0.1,0.3
					c-4.5,3.9-13.6,3.9-18.7,4.3c-8.1,0.6-16.2,0.4-24.3,0.1c-10.7-0.4-21.3-1.2-32-1.4c-5-0.1-10,0.1-15,0.3
					C526.2,361.8,519.5,362.5,516.1,359.2z"/>
				<path d="M541.1,113.8c-7.9,0.2-16,1-23.9,0.8c0,1.9,0,3.8-0.1,5.7c8.8-0.5,17.8,0.1,26.6,0.1c9,0,18-0.2,27-0.2
					c16.1-0.1,32.9,2.4,48.8-0.7c0.1,0,0.2,0,0.3,0c0-1.9,0-3.8,0-5.7c-17.3,0-34.5-0.3-51.8-0.4
					C559.1,113.5,550.1,113.5,541.1,113.8z M538,109.8c-6.8,0.2-14,0.5-20.7-1.3c0,0,0,0,0,0c0,1.8,0,3.5,0,5.3
					c7.8-1.2,16-1.1,23.9-1.3c9-0.2,18-0.3,27-0.3c17.3,0,34.5,0.4,51.8,0.4c0-0.8,0-1.5,0-2.3c-19.1-0.1-38.2-1.4-57.2-1.3
					C554.5,108.9,546.2,109.6,538,109.8z M517.4,103.2c8.3-0.3,16.6,0.1,24.9-0.3c8.3-0.4,16.5-0.9,24.8-1.2
					c17.7-0.5,35.3,1.8,52.9,0.2c0-1.6,0-3.2,0-4.8c-17.5,0.7-35,0.7-52.4,1.2c-16.7,0.5-33.8,1.6-50.5,0.3c0.1,1.5,0.1,3.1,0.1,4.7
					C517.3,103.2,517.3,103.2,517.4,103.2z M517,126.7c-0.1,2.1-0.1,4.3-0.2,6.4c8.9-0.7,18-0.6,27-0.9c8.5-0.3,16.9-0.7,25.4-0.7
					c16.9,0,33.8,1.8,50.6,0.1c0-1.2,0-2.5,0-3.7c-17.5-0.1-34.9-1.2-52.4-0.2C550.9,128.6,533.3,130.6,517,126.7z M517.1,125.7
					c17.6,2.1,34.7,1.4,52.3,0.5c16.8-0.9,33.6,0.3,50.6,0.3v-0.1c0-1.9,0-3.7,0-5.6c-16.1,3.1-33,0.6-49.2,0.7
					c-9.6,0.1-19.3,0.2-28.9,0.2c-8.2,0-16.5,0.3-24.6-1C517.2,122.4,517.1,124.1,517.1,125.7C517.1,125.7,517.1,125.7,517.1,125.7z
					 M517.2,103.9c0,1.4,0,2.7,0.1,4.1c0,0,0.1-0.1,0.1-0.1c15.9,0.9,31.5-0.5,47.3-0.4c18.4,0.1,36.8,1.2,55.3,1.3
					c0-1.9,0-3.8,0.1-5.7c-18.2,1.6-36.5-0.9-54.7-0.2c-8.8,0.3-17.7,0.9-26.5,1.3C531.7,104.5,524.3,105,517.2,103.9
					C517.3,103.9,517.2,103.9,517.2,103.9z M563.3,172.4c-15.7,0-31.8,3.3-47.3-0.1c0,1.9,0,3.9,0,5.8c17.5,0.9,34.7,1.3,52.2,0.8
					c17.3-0.5,34.5-1.3,51.8-0.8c0-2-0.1-4-0.1-5.9C601,172.2,582.2,172.4,563.3,172.4z M516,79.3c0.1,2.2,0.3,4.4,0.4,6.6
					c0,0,0,0,0,0c9.1-0.8,18.4-0.4,27.5-0.5c8.5-0.1,17-0.3,25.5-0.4c16.9-0.3,33.8-0.5,50.8-0.4c0-0.5,0-1.1,0-1.6
					c0-1.2,0-2.3,0-3.5c-18.3,0-36.5,0.8-54.8,1.6c-8.8,0.4-17.7,0.6-26.6,0.4C531.3,81.2,523.4,81.1,516,79.3z M516.7,139.4
					c16.4-2.5,33.8-0.9,50.3-0.3c17.5,0.6,35.1,1.1,52.6-1c0.1,0,0.2,0,0.3,0c0-1.7,0-3.5,0-5.2c-16.9,1.7-33.7-0.1-50.6-0.1
					c-17.3,0.1-35.1,2.5-52.3,1.1C516.8,135.8,516.7,137.6,516.7,139.4z M516.3,372.5c1.6,4.6,6,5.4,10.6,5.3
					c6.5-0.1,12.8-0.9,19.3-1.1c1.6,0,3.2-0.1,4.9,0c11.8,0.4,23.6,1.1,35.4,1.2c5.9,0,11.8,0,17.7-0.4c5.3-0.4,10.5-1.8,15.8-1.5
					c1.6-1.3,2.5-3.4,2.9-5.9c-13.2,7.9-31.4,4-46,3.7c-10-0.2-20.4,0.8-30.8,1.1C536,375.3,525.9,375,516.3,372.5z M516,171.5
					c0,0,0.1,0,0.1,0c16.1,3.1,32.8-0.2,49.1-0.1c18.2,0.1,36.4-0.2,54.6-0.4c0-0.4,0-0.8,0-1.1c0-1.5,0-3.1,0-4.6
					c-17.1,2.1-34.4,2-51.7,1.6c-9.5-0.2-19,0.1-28.5,0.2c-3.9,0.1-7.9,0.2-11.8-0.2c-3.8-0.4-7.6-0.8-11.4,0.1
					c-0.2,0.1-0.3,0-0.4-0.1C516.1,168.4,516.1,170,516,171.5z M515.8,198.5c0,2.1,0,4.3-0.1,6.4c16.6-2.9,33.6-0.5,50.4-0.5
					c18.1,0.1,36.2-0.1,54.2-0.2c-0.1-2.2-0.2-4.4-0.2-6.6c-17,2.1-34,1.3-51.1,0.4C551.3,197.1,533.7,196.7,515.8,198.5z
					 M516.6,141.6c-0.1,1.5-0.1,3-0.1,4.5c0,0,0.1-0.1,0.2-0.1c16.4-2.8,33.5-0.3,50,0.6c17.7,0.9,35.4,0,53.1-0.4c0,0,0,0,0,0
					c0-2.2,0-4.3,0-6.5c-17,1.8-34,1.6-51,1c-17.4-0.6-34.8-0.2-52.2-0.4C516.6,140.8,516.6,141.2,516.6,141.6z M516.7,92
					C516.8,92,516.8,92,516.7,92c16.7,1,33,0.4,49.7,0.1c17.7-0.3,35.3,0.6,52.9-1.8c0.4-0.1,0.7,0.3,0.7,0.6c0,0.2-0.1,0.4-0.4,0.5
					c-17.6,2.6-35.4,1.3-53.2,1.7c-16.3,0.4-33.5,2.7-49.6-0.6c0.1,1.8,0.2,3.5,0.2,5.2c17.5-0.7,35.1-0.3,52.6-0.8
					c16.8-0.5,33.7-1.6,50.5-1c0-1.7,0-3.4,0-5c0-1.7,0-3.4,0-5.1c-17.6-0.2-35.2,0.1-52.8,0.4c-16.8,0.3-34.2,1.8-51,0.4
					C516.5,88.4,516.6,90,516.7,92z M515.6,40.1c16.5,2.3,33.1-0.3,49.7-0.1c18.2,0.2,36.3-0.1,54.5,0c0,0,0-0.1,0-0.1
					c-0.9-16-30-11.2-40.8-10.2c-8.7,0.8-16.7,0.3-25.3-0.9c-10.9-1.6-23.9-4.5-34.5,0c0.1,0.1,0.2,0.2,0.1,0.3
					c-2.9,2.1-3.3,7.6-3.6,10.8C515.6,39.9,515.6,40,515.6,40.1z M543.6,366.2c-9.2-0.4-18.9,0.4-28-0.8c-0.1,2.1-0.1,4.1,0.4,6.2
					c10.2,1.4,20.3,2,30.6,1.8c9.7-0.2,19.4-1,29.2-0.8c14.7,0.3,33.4,4.5,46.7-3.6c0.2-0.1,0.3-0.1,0.4,0c0.2-1.3,0.2-2.7,0.2-4.1
					c-1.8,1.3-5.7,1.2-7.7,1.4c-4.4,0.6-8.8,1.1-13.2,1.3c-9.4,0.5-18.9,0.5-28.3,0.1C563.8,367.4,553.7,366.7,543.6,366.2z
					 M515.9,192.6c0,1.8,0,3.5-0.1,5.3c34.4-6.6,69.7,2.8,104.4-1.6c0-1.6,0-3.1,0-4.6c0-0.5,0-1,0-1.5c-18,0.1-35.9,1.5-53.9,1.4
					C549.4,191.4,532.7,191,515.9,192.6z M515.7,73.3c6.5-0.1,13-1.1,19.5-1.1c0.6,0,1.2,0,1.7,0c10.1,0.3,20.2,1.1,30.3,1.3
					c9.8,0.2,19.7,0.5,29.5,0.2c4.9-0.1,9.8-0.3,14.7-0.8c2.8-0.3,5.8-1,8.7-1.1c0-1.2,0-2.5,0-3.7c-18.2,1-36.5-0.1-54.7,0.4
					c-9.8,0.2-20.1,1.2-30.3,1.2c-6.7,0-13.4-0.5-19.8-1.9C515.5,69.6,515.6,71.5,515.7,73.3z M516.2,159.6c0,2.2-0.1,4.4-0.1,6.6
					c0.1-0.1,0.1-0.1,0.2-0.1c6.5-2.3,14.7-0.1,21.5-0.2c8.9-0.2,17.8-0.6,26.8-0.3c18.4,0.4,37,0.8,55.3-1.7c0-1.5,0-3,0-4.6
					c-17.4,0-34.8,0.2-52.2,0.3c-17,0.2-34.2,0.9-51.2,0.1C516.3,159.8,516.2,159.7,516.2,159.6c0-0.1,0.1-0.2,0.2-0.2
					c17.7-0.9,35.5-0.4,53.2-0.6c16.8-0.2,33.5-0.3,50.3-0.3c0-1.8,0-3.6,0-5.4c0,0,0,0-0.1,0c-17.2-0.3-34.3-0.1-51.5,0
					c-17.1,0.1-34.4,0.7-51.5-0.2c-0.2,0-0.3-0.2-0.3-0.3s0.1-0.3,0.3-0.4c17.1-0.9,34.4-0.3,51.5-0.2c17.2,0.1,34.4,0.3,51.5,0
					c0,0,0,0,0,0c0-1.5,0-3,0-4.5c0,0,0,0-0.1,0c-17.7,0.4-35.4,1.4-53.1,0.4c-16.7-1-33.1-2.2-49.9-0.9c-0.1,0-0.2,0-0.3-0.1
					c0,1.9-0.1,3.7-0.1,5.6C516.3,154.9,516.2,157.2,516.2,159.6z M515.7,74.4c0.1,1.4,0.2,2.9,0.3,4.3c8.3,0.3,16.5,1.5,24.8,1.6
					c8.9,0.1,17.7-0.1,26.6-0.5c17.6-0.8,35.2-1.5,52.9-1.5c0-1.7,0-3.3,0-5c-3.5,0.1-7.1,1-10.6,1.2c-4.9,0.4-9.8,0.6-14.7,0.7
					c-9.8,0.2-19.7,0.1-29.5-0.3c-10.2-0.3-20.3-1.2-30.5-1.3C528.7,73.5,521.9,75.2,515.7,74.4z M515.2,46.2
					c8.8-0.8,18-0.3,26.9-0.3c8.5,0,16.9-0.1,25.4-0.2c17.6-0.1,35.1-0.3,52.7-0.4c0.2,0,0.3,0.1,0.4,0.1c0-0.5,0.1-1.1,0.1-1.6
					c0,0,0-0.1,0-0.1c0,0,0,0,0-0.1c0,0,0,0,0,0c0-0.1,0-0.2,0-0.2c-0.2-0.4-0.3-0.9-0.4-1.3c0-0.3-0.1-0.6-0.2-0.9
					c-18.9,0.5-37.8,0.1-56.7,0c-8.6,0-17.2,0.7-25.8,1c-7.4,0.3-14.9,0.6-22-1.5C515.3,42.5,515.2,44.3,515.2,46.2z M515.4,67.4
					c17.4,0.9,34.5,0.2,51.9-0.1c17.6-0.2,35.3,0.6,52.9-0.4c0-1.4,0-2.8,0-4.2c-18.7,0-37.5,1.3-56.1,0.5
					c-8.7-0.3-17.4-0.4-26.1-0.2c-7.3,0.1-15.6,0.8-22.7-1.4C515.2,63.6,515.3,65.5,515.4,67.4z M516,359.9
					c-0.1,1.7-0.2,3.4-0.3,5.1c8.3-1.6,17.7-0.5,26.1-0.1c8.9,0.4,17.7,1,26.6,1.5c9.5,0.5,18.9,0.8,28.4,0.4
					c5-0.2,9.9-0.5,14.8-1.1c2.5-0.3,9.4-0.2,11.2-2c0.2-0.2,0.3-0.2,0.5-0.2c-0.1-2.8-0.3-5.6-0.4-7.9c-0.1,0.4-0.3,0.8-0.4,1.1
					c0.2,0.1,0.2,0.3,0.1,0.5c-2.7,5.1-12.5,5.4-17.3,5.8c-9.2,0.8-18.4,0.7-27.6,0.4c-12.5-0.4-25.1-1.4-37.6-1.2
					c-5,0.1-10.1,0.6-15.2,0.3C521.7,362.5,518.1,362.2,516,359.9z M515.1,46.9c-0.1,1.5-0.1,3.1-0.1,4.6c8.9-0.9,18.1-0.3,27-0.3
					c8.5,0,16.9,0,25.4-0.1c17.5-0.1,35.1-0.2,52.7-0.2c0,0,0.1,0,0.1,0c0-1.5,0.1-3.1,0.2-4.6c-0.1,0.1-0.2,0.1-0.3,0.1
					c-17.6,0.2-35.1,0.4-52.7,0.5c-9.1,0.1-18.2,0.1-27.3,0.1C531.8,47.2,523.3,47.7,515.1,46.9z M515,52.3c0,1.4,0,2.7,0,4
					c8.3-1.1,17-0.2,25.3,0c8.7,0.2,17.4,0.4,26.1,0.5c17.9,0.2,35.7,0,53.5-1.8c0.1,0,0.1,0,0.2,0c0-1,0-1.9,0.1-2.8
					c0,0-0.1,0-0.1,0c-17.6,0-35.1,0.1-52.7,0.2c-9.1,0-18.2,0.1-27.3,0.2C531.8,52.5,523.3,53.1,515,52.3z M516,184.2
					c0,2.5,0,5-0.1,7.5c16.6-2.8,33.7-1.4,50.4-1.4c18,0,35.9-1.3,53.8-1.4c0-1.6,0-3.2-0.1-4.8c-17.7,0.5-35.3,1.2-53,1.5
					c-16.7,0.2-34.1,1.2-50.7-1c-0.2,0-0.3-0.2-0.3-0.4c0-0.2,0.1-0.3,0.3-0.3c17.5-0.4,35.1,0.9,52.6,0.6c17-0.3,34-0.9,51-1.4
					c0-1.3,0-2.6-0.1-3.9c-17.9-0.5-35.8,0.4-53.7,0.8c-16.6,0.4-33.8,1.2-50.3-1.5C516,180.4,516,182.3,516,184.2z M540.3,57.5
					c-8.3-0.2-17,0.4-25.2-0.7c0,0,0,0,0,0c0,1.4,0.1,2.9,0.1,4.3c8.2,0.1,16.4,1,24.7,0.8c8.8-0.2,17.4,0.1,26.2,0.3
					c18,0.4,36.1-0.5,54.1-0.6c0-1.8,0-3.7,0-5.5c-17.2,1.8-34.6,2.1-51.9,1.9C558.9,58,549.6,57.7,540.3,57.5z M514.8,292.8
					c1,9.9-0.6,20.6-0.9,30.4c-0.2,9.7,0.1,19.1,1.1,28.7c0.3,2.4,0.6,4.8,1,7.3c3.4,3.3,10.1,2.6,14.4,2.4c5-0.3,10-0.4,15-0.3
					c10.7,0.1,21.3,1,32,1.4c8.1,0.3,16.2,0.5,24.3-0.1c5.1-0.4,14.3-0.4,18.7-4.3c0-0.1,0-0.2,0.1-0.3c3.7-6.6,2-15.9,1.8-23.2
					c-0.4-9.4-0.1-19,0.1-28.5c-0.2,0-0.4-0.1-0.5-0.4c-0.5-16,1-32.1,1.1-48.1c0.1-15.7-1.1-31.2-1.6-46.9
					c-0.2-0.1-0.4-0.2-0.5-0.5c-0.3-1.6-0.5-3.2-0.6-4.9c-17.5,0-35.1,0-52.6-0.1c-17.4-0.1-34.7-1.7-52.1,0.1c0,0,0,0,0,0v0.3
					c0.1,0.1,0.2,0.2,0.2,0.4c0.1,2.9,0.2,5.8,0.2,8.7c11.2-1,33.1-5.8,32.4,11.3c2.2,17.7,0.2,36.4-0.5,54.2
					c-0.4,9.7-0.4,19.4,0,29.1c0.3,6.4,1.4,13.2,0.8,19.7c0,0.1,0.1,0.1,0.1,0.2c0.4,6,2,16.7-4,20.6c-3.9,2.5-8.7,3-13.2,3.4
					c-5.5,0.4-11.1,0.7-16.3-1.5c-0.1,0-0.1-0.1-0.1-0.1c0-0.1,0.1-0.2,0.2-0.1c4.8,1.1,9.8,1.3,14.7,0.8c4.4-0.4,11.4-0.6,14.8-4
					c3.8-3.9,3-9.6,2.8-14.8c-0.2,0-0.4-0.2-0.5-0.5c-0.2-4,0.4-8,0.2-12c-0.2-4.5-0.3-9-0.3-13.6c0-9.1,0.2-18.1,0.2-27.2
					c0-9.1,0.3-18.2,0.3-27.3c0-8.8-0.4-17.6,0-26.4c-0.6-3.6-1.3-7.7-4.8-9.8c-2.9-1.7-6.3-2.2-9.6-2.2c-5.7,0-11.4,0.8-17.1,0.6
					c0,11.3-0.6,22.7-0.9,34c-0.3,14.4,0.4,28.8-0.3,43.2C514.9,292.7,514.9,292.8,514.8,292.8z M514.1,249.4
					c0.3-13.7,0.2-27.5,0.7-41.2c-0.2-0.1-0.4-0.3-0.4-0.6c-0.4-23.3,0.1-46.5,0.9-69.8c0.5-16.3,0.8-32.6-0.1-48.8
					c-0.8-12.9-1.7-25.8-1.3-38.7c0.1-4-0.6-15,2.8-19.6c0.1,0,0.1-0.1,0.2-0.2c0.2-0.2,0.3-0.4,0.5-0.6c0,0,0,0,0-0.1
					c0.2-0.2,0.4-0.4,0.7-0.6c0,0-0.1,0-0.1,0c-0.1,0-0.1,0-0.2,0c0.5-0.7,1.1-1.3,1.7-2c10-5.5,25.4-1.5,35.6,0
					c9.9,1.4,18.7,1.1,28.5,0.2c10.9-1,40.3-4,37.8,14c1.2,13.7,0.2,27.8,0.1,41.5c-0.1,8.6-0.1,17.3-0.2,25.9c0.5,0.2,0.5,1,0,1.2
					c0,5.4-0.1,10.9-0.1,16.3c-0.1,14.5-0.1,29,0.1,43.5c0.1,7.2,0.2,14.5,0.3,21.7c0.1,6.1-0.2,12.4,0.8,18.4
					c0,0.3-0.1,0.5-0.2,0.6c2.6,15.4,2.1,31.6,1.9,47.1c-0.2,15.7-0.2,31.5-1.2,47.2c0.1,0,0.1,0.1,0.1,0.2
					c0.2,10.6-0.2,21.4,0.4,32c0.3,5,1,10.8,0,16c0.4,5.3,2.7,19.4-2.9,23.6c-0.1,0.2-0.2,0.3-0.4,0.3c-0.4,0.2-0.8,0.4-1.3,0.6
					c-0.3,0.1-0.6-0.2-0.5-0.5c-6.1,0.2-12.1,1.4-18.1,1.6c-7.2,0.3-14.4,0.3-21.7,0.1c-12.5-0.4-25.7-2.1-38.2-0.9
					c-6.9,0.7-16.8,3.2-22.9-1.3c-4.3-3.2-3.3-12.4-2.1-17.2c-2.5-11.2-2.5-23.1-2.4-34.5c0.1-6.5,0.3-13,0.5-19.5
					c0.2-4.2,0-8.5,0.5-12.7c0-0.1-0.1-0.1-0.1-0.2C512.6,278.3,513.8,263.6,514.1,249.4z"/>
				<radialGradient id="SVGID_57_" cx="320" cy="205" r="542.4288" gradientUnits="userSpaceOnUse">
					<stop  offset="0" style="stop-color:#FFFFFF"/>
					<stop  offset="0.4054" style="stop-color:#FBFBFB"/>
					<stop  offset="0.7864" style="stop-color:#F0F0F0"/>
					<stop  offset="1" style="stop-color:#E6E6E6"/>
				</radialGradient>
				<path class="st56" d="M494.4,33.1c0.1,0.1,0.3,0.3,0.4,0.5c-0.1,0-0.1,0.1-0.2,0.1c-3.1,2.6-6,5.4-9,8.1c-1.7,1.6-3.4,3.2-4.7,5
					c-0.6,0.5-1.1,0.9-1.7,1.4c0,0-0.1,0-0.1,0c-31.8-0.1-63.7-3.5-95.4-5.5c-33-2.1-66-3.9-99.1-4.6c-33-0.7-65.7,0.3-98.6,2.1
					c-16.3,0.9-32.7,1.9-49,2.9c-15.6,1-31.2,0.5-46.8,1.3c-14.9,0.8-29.2,5.6-44,6.6c-6.6-5.5-11-14.9-19.3-18.1
					c1.2-1.6,2.6-2.8,4.4-3.4c15.2,2,30.8,2,46.1,2.4c16,0.3,31.9,0.1,47.9-0.2c32.1-0.7,64.1-2.3,96.1-3.4
					c64.1-2.2,128.2,0.7,192.4-0.3c18.9-0.3,37.8,0.2,56.6-0.4C478.4,27.4,488.1,27.2,494.4,33.1z"/>
				<radialGradient id="SVGID_58_" cx="319.9999" cy="205.0001" r="542.4285" gradientUnits="userSpaceOnUse">
					<stop  offset="0" style="stop-color:#FFFFFF"/>
					<stop  offset="0.4054" style="stop-color:#FBFBFB"/>
					<stop  offset="0.7864" style="stop-color:#F0F0F0"/>
					<stop  offset="1" style="stop-color:#E6E6E6"/>
				</radialGradient>
				<path class="st57" d="M487.8,131.3c-1.1-27.2-3-55.1-8.4-81.9c0.1-0.1,0.2-0.2,0.3-0.4c0,0,0.1,0,0.1,0c0.2-0.2,0.3-0.3,0.5-0.5
					c2.3-1.6,4.6-3.3,6.4-5.3c0.2-0.2,0.2-0.5,0-0.6c2.9-2.7,5.8-5.3,8.8-7.9c0,0,0-0.1,0-0.1c0.2,0.3,0.4,0.6,0.6,0.9
					c0,0.1,0,0.3,0.1,0.4c0.2,0.4,0.4,0.8,0.6,1.1c0.1,0.4,0.3,0.7,0.4,1.1c0,0,0,0,0,0c1.7,4.4,1.5,9.4,1.2,14.1
					c-0.3,6-0.7,12-0.9,18c-0.4,14.6-0.5,29.3,0.6,43.8c2,28.6-3.7,57.6-0.1,86.1c-1.1,16.3-0.7,32.8-0.9,49.2
					c-0.2,17.7-0.5,35.3-0.6,53c-0.1,17.7-0.1,35.4,0.4,53.1c0.1,4.2,1.3,12.3-0.4,17.5c-6-6.8-13-12.6-18.6-19.7
					c-0.1-0.1-0.1-0.1-0.2-0.1c7-22.6,9.1-46.8,10.2-70.4c0.6-12.6,0.7-25.3,0.6-38c-0.1-11.6,0.6-23.9-0.9-35.5
					C489.2,183.5,488.9,157.3,487.8,131.3z"/>
				<path d="M442.9,58c-0.6-0.1-1.2-0.2-1.8-0.3c-16.6-3-33.3-5-49-6.5V50l0.1-1.2c10.2,1,19.9,2.1,29.3,3.4
					c6.6,0.9,14.3,2.1,21.9,3.5l1.3,0.2c3.6,0.7,7.4,1.4,10.7,3c6.2,3.1,8.5,9.3,10.7,15.3c0.2,0.6,0.4,1.1,0.6,1.7
					c0.1,0.3,0.1,0.5,0,0.8c7,14,8,31.2,8.4,46.2c0.3,10.4,0.1,21-0.1,31.3c-0.1,3.8-0.1,7.6-0.2,11.4c0,0.1,0.1,0.2,0.1,0.3
					c1.6,10.5,1.9,21.5,2.1,32.1l0.1,4.2c0.3,13.6,0.3,27-0.1,39.6c-0.4,14.3-1.2,27.2-2.3,39.6l-0.3,3.4
					c-0.9,9.9-1.8,20.1-3.9,29.9l-2-0.5c0.5-5.9,1.2-11.9,1.9-17.8c0.7-5.6,1.4-11.3,1.8-17c1.1-12.9,1.8-25.6,2.1-37.8
					c0.4-14,0.4-26.9,0-39.6c-0.2-5.4-0.5-10.9-0.9-16.2c-0.3-4-0.5-8.1-0.7-12.2c0-0.1-0.1-0.2-0.1-0.4c-0.4-8.8-0.3-17.7-0.2-26.3
					c0.2-23.2,0.3-47.2-7.7-70.1c-0.1-0.1-0.2-0.2-0.2-0.4c-0.3-0.8-0.6-1.6-0.9-2.5c-1.5-4.1-3.2-8.8-6.4-11.5
					C453.4,59.8,447.8,58.8,442.9,58z"/>
				<path class="st58" d="M392,51.1c15.8,1.5,32.4,3.5,49,6.5c0.6,0.1,1.2,0.2,1.8,0.3c4.9,0.8,10.5,1.8,14.4,4.9
					c3.3,2.7,5,7.3,6.4,11.5c0.3,0.8,0.6,1.7,0.9,2.5c0.1,0.1,0.1,0.3,0.2,0.4c8,22.9,7.9,46.9,7.7,70.1c-0.1,8.6-0.1,17.5,0.2,26.3
					c0,0.1,0,0.2,0.1,0.4c0.2,4.1,0.5,8.2,0.7,12.2c0.3,5.3,0.7,10.8,0.9,16.2c0.4,12.7,0.4,25.6,0,39.6
					c-0.3,12.2-1.1,24.9-2.1,37.8c-0.5,5.7-1.2,11.4-1.8,17c-0.7,5.8-1.4,11.8-1.9,17.8c-0.3,0.2-0.5,0.5-0.6,0.9
					c-1.7,17.6-21,24.5-39.6,28.9c-11.8,2.8-23.8,4.5-36.3,5.8V51.1z"/>
				<path d="M428.3,344.2c18.6-4.4,37.9-11.3,39.6-28.9c0-0.4,0.3-0.7,0.6-0.9l2,0.5c-0.1,0.5-0.2,0.9-0.3,1.4
					c-0.3,12.2-11.5,19.6-18.2,22.9c-12.5,6.2-26.3,9-38,10.8c-7.2,1.1-14.5,2.1-21.8,2.9L392,351v-1
					C404.5,348.7,416.5,347,428.3,344.2z"/>
				<path d="M392,350v1h-1v-0.9C391.3,350,391.7,350,392,350z"/>
				<path d="M392,51.1V350c-0.3,0-0.7,0.1-1,0.1V51C391.3,51.1,391.7,51.1,392,51.1z"/>
				<path d="M392,50v1.1c-0.3,0-0.7-0.1-1-0.1v-1H392z"/>
				<path d="M391,350.1v0.9h-1v-0.9C390.3,350.1,390.7,350.1,391,350.1z"/>
				<path d="M390,350.1V51c0.3,0,0.7,0.1,1,0.1v299C390.7,350.1,390.3,350.1,390,350.1z"/>
				<path d="M391,50v1c-0.3,0-0.7-0.1-1-0.1v-1H391z"/>
				<path class="st59" d="M390,51v299.2c-8.6,0.8-17.5,1.4-26.8,2c-18,1.1-36.4,1.6-54.2,2.1V47.3c1.6,0,3.2,0,4.8,0
					c11.1,0,21.2,0.2,30.9,0.7C358,48.6,373.5,49.5,390,51z"/>
				<path d="M392.2,352.9c-27.6,3.1-55.7,4-83.2,4.7l0-1.6v-1.8c17.9-0.5,36.2-1,54.2-2.1c9.3-0.6,18.1-1.1,26.8-2v0.9h1h1
					L392.2,352.9z"/>
				<path d="M309,354.2v1.8h-1v-1.8C308.3,354.2,308.7,354.2,309,354.2z"/>
				<path d="M308,354.2V47.3c0.3,0,0.7,0,1,0v306.9C308.7,354.2,308.3,354.2,308,354.2z"/>
				<path d="M309,46v1.3c-0.3,0-0.7,0-1,0V46H309z"/>
				<path d="M309,46h-1h-1l0-1.1c1.3,0,2.5,0,3.8,0c5,0,9.9,0.1,14.6,0.2c25,0.7,46.8,1.9,66.8,3.8L392,50h-1h-1v1
					c-16.5-1.5-32-2.4-45.4-3c-9.7-0.5-19.8-0.7-30.9-0.7c-1.6,0-3.2,0-4.8,0V46z"/>
				<path d="M308,354.2v1.8h-1v-1.7C307.3,354.3,307.7,354.3,308,354.2z"/>
				<path d="M307,354.3V47.3c0.3,0,0.7,0,1,0v306.9C307.7,354.3,307.3,354.3,307,354.3z"/>
				<path d="M308,46v1.3c-0.3,0-0.7,0-1,0V46H308z"/>
				<path d="M297,357.9c-18.2,0.4-36.9,0.9-55.3,1.8c-8.4,0.4-16.2,0.8-23.7,1.1l0-1.8v-1.1c5.7-0.3,11.4-0.6,17-0.9
					c9.9-0.5,20.1-1.1,30.2-1.5c12.9-0.5,26-0.9,38.6-1.2c1.1,0,2.1-0.1,3.2-0.1v1.7h1h1l0,1.6C305,357.7,301,357.8,297,357.9z"/>
				<path class="st60" d="M218,357.9V49.8c9.6-0.2,19.2-0.4,28.8-0.8l5.4-0.2c18-0.7,36.5-1.4,54.8-1.5v306.9
					c-1.1,0-2.1,0.1-3.2,0.1c-12.7,0.3-25.8,0.7-38.6,1.2c-10.1,0.4-20.3,0.9-30.2,1.5C229.4,357.3,223.7,357.6,218,357.9z"/>
				<path d="M218,357.9v1.1h-1v-1.1C217.3,357.9,217.7,357.9,218,357.9z"/>
				<path d="M218,49.8v308.1c-0.3,0-0.7,0-1,0.1V49.8C217.3,49.8,217.7,49.8,218,49.8z"/>
				<path d="M218,49v0.8c-0.3,0-0.7,0-1,0V49H218z"/>
				<path d="M217,357.9v1.1h-1v-1C216.3,358,216.7,357.9,217,357.9z"/>
				<path d="M217,49.8v308.1c-0.3,0-0.7,0-1,0V49.8C216.3,49.8,216.7,49.8,217,49.8z"/>
				<path d="M217,49v0.8c-0.3,0-0.7,0-1,0V49H217z"/>
				<path class="st61" d="M132,358.5V50.9c0.1,0,0.2,0,0.3,0c1.9,0,3.8,0,5.7,0c4.5,0,7.9,0,11-0.1c12.2-0.3,24.6-0.4,36.6-0.6
					c10-0.1,20.2-0.3,30.5-0.4V358c-16.2,0.8-32.6,1.4-48.8,1.3C155.3,359.2,143.5,358.9,132,358.5z"/>
				<path d="M132,358.5v0.5h-1v-0.5C131.3,358.5,131.7,358.5,132,358.5z"/>
				<path d="M132,50.9v307.6c-0.3,0-0.7,0-1,0V50.9C131.3,50.9,131.7,50.9,132,50.9z"/>
				<path d="M132,50v0.9c-0.3,0-0.7,0-1,0V50H132z"/>
				<path d="M130,50l0-1.1c0.9,0,1.7,0,2.6,0c33.9-0.3,64.9-0.8,94.5-1.5c10.8-0.3,21.8-0.7,32.4-1.2c15.5-0.7,31.6-1.3,47.4-1.4
					l0,1.1v1.3c-18.3,0.1-36.9,0.8-54.8,1.5l-5.4,0.2c-9.6,0.4-19.2,0.6-28.8,0.8V49h-1h-1v0.8c-10.2,0.2-20.4,0.3-30.5,0.4
					c-12,0.1-24.4,0.3-36.6,0.6c-3.1,0.1-6.5,0.1-11,0.1c-1.9,0-3.8,0-5.7,0c-0.1,0-0.2,0-0.3,0V50h-1H130z"/>
				<path d="M131,358.5v0.5h-1v-0.5C130.3,358.5,130.7,358.5,131,358.5z"/>
				<path d="M130,358.5V50.9c0.3,0,0.7,0,1,0v307.6C130.7,358.5,130.3,358.5,130,358.5z"/>
				<path d="M131,50v0.9c-0.3,0-0.7,0-1,0V50H131z"/>
				<path class="st62" d="M49.4,131.3c0-8.6,0.1-17.5,0.8-26.3c1.2-13.7,3.1-36.6,17.4-46.6c18.4-6.9,38.4-7.5,58.9-7.5
					c1.2,0,2.3,0,3.5,0v307.5c-3.6-0.1-7.1-0.3-10.6-0.4c-13.2-0.6-30.2-2.2-45.1-9.2c-0.2-0.3-0.5-0.5-0.8-0.6
					c-8.1-2.8-19.3-10.3-23.1-43.5c-1.7-15-1.5-30.3-1.3-45.1c0-2.9,0.1-5.8,0.1-8.7c0.1-11.9-0.4-23.9-0.8-35.5
					c-0.7-18.9-1.5-38.5,0.2-57.8C49.4,148.9,49.4,139.9,49.4,131.3z"/>
				<radialGradient id="SVGID_59_" cx="319.9999" cy="205.0002" r="542.4279" gradientUnits="userSpaceOnUse">
					<stop  offset="0" style="stop-color:#FFFFFF"/>
					<stop  offset="0.4054" style="stop-color:#FBFBFB"/>
					<stop  offset="0.7864" style="stop-color:#F0F0F0"/>
					<stop  offset="1" style="stop-color:#E6E6E6"/>
				</radialGradient>
				<path class="st63" d="M476.8,353.6c-62,10.3-124.8,12.3-187.5,12.6c-62.7,0.3-125.3,3.2-188,0c-18.6-0.9-37.3-3-55-8.8
					c0,0,0,0,0,0c-4.9-21.5-6.8-43.5-7.7-65.5c-0.9-21.3,0.4-42.8-0.6-64c0.1-0.1,0.1-0.2,0.1-0.3c0-31.7,0.6-63.2,1.9-94.9
					c0.6-15.1,1.7-30.1,2.6-45.1c0.7-11.6-1.2-24.5,2.9-35.5c0.2,0,0.4,0,0.6-0.2c14.2,0.1,27.9-5,42.1-6c15.6-1,31.2-0.3,46.8-1.3
					c32.6-2,65.3-4.5,98-5.2c66.1-1.5,132.2,3.5,198.2,7.8c15.9,1,31.8,2.3,47.7,2.4c3.3,27.2,6.6,54.3,7.9,81.7
					c1.2,25.7,0.8,51.4,0.1,77.1c-0.2,0.1-0.4,0.3-0.4,0.5c-0.9,11.3,0.5,23.1,0.6,34.4c0.1,12.6,0,25.3-0.5,37.9
					C485.8,305.7,482.8,329.8,476.8,353.6z M443.3,55.8c-7.6-1.5-15.3-2.6-21.9-3.5c-9.4-1.3-19.1-2.5-29.3-3.4
					c-19.9-1.9-41.8-3.1-66.8-3.8c-4.6-0.1-9.5-0.2-14.6-0.2c-1.3,0-2.5,0-3.8,0c-15.9,0.1-31.9,0.8-47.4,1.4
					c-10.6,0.4-21.6,0.9-32.4,1.2c-29.7,0.7-60.6,1.2-94.5,1.5c-0.9,0-1.7,0-2.6,0c-0.9,0-1.8,0-2.8,0c-20.2,0.1-41,0.2-59.7,8
					c0,0-0.1,0-0.1,0l-0.3,0.1c-0.1,0-0.2,0.1-0.3,0.2c-0.1,0.1-0.3,0.2-0.3,0.3c-13.1,7.8-15.7,28.1-17.2,40.2
					c-1.7,13.5-1.9,27.3-2,40.7c0,4.8-0.1,9.7-0.2,14.6c-0.1,5.2-0.4,10.5-0.6,15.6c-0.4,7.9-0.8,16-0.7,24.1
					c0,7.8,0.2,15.6,0.3,23.2c0.1,7.8,0.3,15.9,0.3,23.9c0,6.2-0.1,12.5-0.3,18.6c-0.3,12.7-0.6,25.8,0.6,38.4
					c1.8,18.8,4.5,47.2,26,54.1c0.1,0,0.2,0,0.3,0c19.2,10,41.5,10.3,63.1,10.5c3.3,0,6.5,0.1,9.8,0.2c6.9,0.2,14.1,0.3,21.3,0.3
					c10.9,0,22.1-0.2,34.3-0.6c5.3-0.2,10.9-0.4,16.6-0.6c7.4-0.3,15.3-0.7,23.7-1.1c18.4-1,37.1-1.4,55.3-1.8c4-0.1,8-0.2,12-0.3
					c27.5-0.7,55.5-1.6,83.2-4.7c7.3-0.8,14.6-1.8,21.8-2.9c11.8-1.9,25.5-4.6,38-10.8c6.7-3.3,17.9-10.7,18.2-22.9
					c0.1-0.4,0.2-0.9,0.3-1.4c2.1-9.8,3-20,3.9-29.9l0.3-3.4c1.1-12.4,1.9-25.4,2.3-39.6c0.4-12.6,0.4-26,0.1-39.6l-0.1-4.2
					c-0.2-10.6-0.5-21.6-2.1-32.1c0-0.1,0-0.2-0.1-0.3c0-3.8,0.1-7.6,0.2-11.4c0.2-10.3,0.4-20.9,0.1-31.3
					c-0.4-15-1.5-32.2-8.4-46.2c0.1-0.2,0.1-0.5,0-0.8c-0.2-0.5-0.4-1.1-0.6-1.7c-2.2-6-4.5-12.3-10.7-15.3c-3.3-1.7-7.1-2.4-10.7-3
					L443.3,55.8z"/>
				<path d="M47.3,138.4c0.1-13.3,0.3-27.2,2-40.7c1.5-12.1,4.1-32.4,17.2-40.2c0.1-0.1,0.2-0.2,0.3-0.3c0.1,0,0.2-0.1,0.3-0.2
					l0.3-0.1c0,0,0.1,0,0.1,0c18.7-7.8,39.5-7.9,59.7-8c0.9,0,1.8,0,2.8,0l0,1.1v0.9c-1.2,0-2.3,0-3.5,0c-20.5,0-40.5,0.6-58.9,7.5
					c-14.2,10-16.2,32.9-17.4,46.6c-0.7,8.7-0.8,17.6-0.8,26.3c0,8.6-0.1,17.5-0.8,26.3c-1.7,19.3-0.9,38.9-0.2,57.8
					c0.4,11.6,0.9,23.6,0.8,35.5c0,2.9-0.1,5.8-0.1,8.7c-0.2,14.8-0.4,30.1,1.3,45.1c3.8,33.2,15,40.7,23.1,43.5
					c0.3,0.1,0.6,0.3,0.8,0.6c14.9,7,31.9,8.6,45.1,9.2c3.5,0.2,7,0.3,10.6,0.4v0.5h1h1v-0.5c11.5,0.4,23.3,0.6,35.2,0.7
					c16.2,0.1,32.6-0.5,48.8-1.3v1h1h1l0,1.8c-5.8,0.2-11.3,0.4-16.6,0.6c-12.2,0.4-23.4,0.6-34.3,0.6c-7.3,0-14.4-0.1-21.3-0.3
					c-3.2-0.1-6.5-0.1-9.8-0.2c-21.6-0.3-43.9-0.6-63.1-10.5c-0.1,0-0.2,0-0.3,0c-21.5-7-24.2-35.3-26-54.1
					c-1.2-12.7-0.9-25.8-0.6-38.4c0.2-6.1,0.3-12.5,0.3-18.6c0-8-0.2-16.1-0.3-23.9c-0.1-7.6-0.3-15.5-0.3-23.2
					c0-8.1,0.3-16.2,0.7-24.1c0.2-5.1,0.5-10.4,0.6-15.6C47.2,148.1,47.2,143.2,47.3,138.4z"/>
				<path d="M38,227.9l-0.7-0.1c0-0.1,0-0.1,0-0.2c0,0,0,0,0-0.1c-2.4-32.8,0.2-66,1.5-98.8c0.7-16.2,1.9-32.4,2.9-48.6
					c0.5-8.3-2.3-21.2,3.6-28.2l0.2,0.1c-4.1,11-2.2,23.9-2.9,35.5c-0.9,15-2,30.1-2.6,45.1c-1.3,31.7-1.9,63.2-1.9,94.9
					C38.1,227.7,38.1,227.8,38,227.9z"/>
				<radialGradient id="SVGID_60_" cx="320.0002" cy="205" r="542.4268" gradientUnits="userSpaceOnUse">
					<stop  offset="0" style="stop-color:#FFFFFF"/>
					<stop  offset="0.4054" style="stop-color:#FBFBFB"/>
					<stop  offset="0.7864" style="stop-color:#F0F0F0"/>
					<stop  offset="1" style="stop-color:#E6E6E6"/>
				</radialGradient>
				<path class="st64" d="M453.4,380.8c-14.8-0.5-29.6-1.3-44.5-1.5c-32.6-0.4-65.5,0-98,2c-16.1,1-32.1,2.8-48.2,2.7
					c-16,0-31.8-2.4-47.8-2.8c-32.3-0.9-64.5,2.3-96.9,0.4c-21.1-1.3-42.9-3.9-64-2c-0.1-0.3-0.4-0.6-0.9-0.7
					c-7.4-0.5-15-0.7-21.5-4.7c-0.8-0.5-1.6-1-2.2-1.7c2.7-2.4,5.4-5,8-7.5c2.7-2.5,6-4.4,8.6-7c0.1,0,0.1-0.1,0.2-0.1
					c26.6,9.1,55.1,9.5,82.9,10.2c31.8,0.8,63.5,0.7,95.3-0.1c62.9-1.7,125.7,0.1,188.5-5.2c21.5-1.8,43.1-4.2,64.3-8.1
					c0.5-0.1,0.6-0.6,0.3-0.9c0,0,0-0.1,0-0.1c4.9,8,12.3,13.9,18.3,20.9c-0.4,0.8-0.9,1.5-1.5,2c-1.6,0.5-3.2,1-4.8,1.5
					c-0.3,0-0.7-0.1-1-0.1c-0.5-0.1-0.9,0.2-1,0.6C476.5,381.3,464.8,381.2,453.4,380.8z"/>
				<radialGradient id="SVGID_61_" cx="319.9998" cy="205.0001" r="542.4275" gradientUnits="userSpaceOnUse">
					<stop  offset="0" style="stop-color:#FFFFFF"/>
					<stop  offset="0.4054" style="stop-color:#FBFBFB"/>
					<stop  offset="0.7864" style="stop-color:#F0F0F0"/>
					<stop  offset="1" style="stop-color:#E6E6E6"/>
				</radialGradient>
				<path class="st65" d="M21.4,97.6c-0.6-14-1-28.2,0.1-42.2c0.4-5,0.9-15.8,4.9-21.9c7.8,3.9,12,12.3,18.3,17.9
					c-0.1,0.2,0,0.5,0.3,0.5c0.1,0,0.1,0,0.2,0c0,0,0,0,0,0c0,0,0,0,0,0c-5.9,7-3,19.9-3.6,28.2c-1,16.2-2.3,32.4-2.9,48.6
					c-1.3,32.8-3.9,66-1.5,98.8c0,0,0,0.1,0,0.1c0,0.1,0,0.1,0,0.2c-1.7,21.1-0.8,42.9,0,64.1c0.8,21.8,2.4,44.1,7.7,65.3
					c-3,1.1-5.6,3.8-7.9,5.8c-3,2.8-5.8,5.8-8.5,8.9c-3.4-3.4-5.2-8.1-6.2-12.8c-2-9.1-1.3-18.8-1.2-28c0.2-12.4,0.7-24.9,0.8-37.4
					c0.2-13.1-1-26.1-1.7-39.1c-0.3-6.9-0.7-13.8-0.6-20.7c0.1-3.3-0.2-7.9,0.8-11.4c0.2-0.1,0.3-0.3,0.3-0.6c0-0.1,0-0.3,0-0.4
					c0.1-0.2,0.1-0.4,0.2-0.5c0-0.1,0-0.1-0.1-0.1c0,0,0,0-0.1,0c0.9-12.4,0.1-25,0.2-37.4c0-12.9,0.1-25.8,0.3-38.7
					C21.7,129,22.1,113.4,21.4,97.6z"/>
				<path d="M479.5,49.4c5.4,26.8,7.2,54.6,8.4,81.9c1.1,26,1.4,52.2-0.1,78.2c1.5,11.6,0.8,23.9,0.9,35.5c0.1,12.7,0,25.3-0.6,38
					c-1.1,23.5-3.3,47.8-10.2,70.4c0.1,0,0.1,0,0.2,0.1c5.6,7.1,12.6,12.9,18.6,19.7c1.7-5.3,0.5-13.4,0.4-17.5
					c-0.4-17.7-0.5-35.4-0.4-53.1c0.1-17.7,0.4-35.3,0.6-53c0.2-16.4-0.2-32.9,0.9-49.2c-3.6-28.5,2.1-57.5,0.1-86.1
					c-1-14.6-1-29.3-0.6-43.8c0.2-6,0.5-12,0.9-18c0.3-4.7,0.5-9.7-1.2-14.1c0,0,0,0,0,0c-0.1-0.4-0.3-0.7-0.4-1.1
					c-0.2-0.4-0.4-0.8-0.6-1.1c-0.1-0.2-0.1-0.3-0.1-0.4c-0.2-0.3-0.4-0.6-0.6-0.9c0,0,0,0,0,0.1c-3,2.6-5.9,5.2-8.8,7.9
					c0.1,0.2,0.1,0.4,0,0.6c-1.8,2.1-4.1,3.7-6.4,5.3c-0.2,0.2-0.3,0.3-0.5,0.5c0,0-0.1,0-0.1,0C479.7,49.2,479.6,49.3,479.5,49.4z
					 M477.2,354.8c-21.3,3.8-42.8,6.3-64.3,8.1c-62.8,5.3-125.6,3.5-188.5,5.2c-31.8,0.8-63.5,1-95.3,0.1
					c-27.8-0.7-56.3-1.1-82.9-10.2c0,0-0.1,0.1-0.2,0.1c-2.6,2.5-5.9,4.4-8.6,7c-2.7,2.5-5.3,5.1-8,7.5c0.7,0.6,1.4,1.2,2.2,1.7
					c6.5,4,14.1,4.2,21.5,4.7c0.5,0,0.8,0.3,0.9,0.7c21.2-1.9,42.9,0.7,64,2c32.3,2,64.5-1.3,96.9-0.4c16,0.4,31.8,2.8,47.8,2.8
					c16.1,0.1,32.2-1.7,48.2-2.7c32.6-2,65.4-2.4,98-2c14.9,0.2,29.6,0.9,44.5,1.5c11.4,0.4,23.1,0.5,34.3-2.1
					c0.1-0.4,0.5-0.7,1-0.6c0.3,0,0.7,0.1,1,0.1c1.6-0.4,3.2-0.9,4.8-1.5c0.6-0.5,1.1-1.2,1.5-2c-6-7-13.4-12.9-18.3-20.9
					c0,0,0,0.1,0,0.1C477.8,354.2,477.7,354.7,477.2,354.8z M470.3,27.6c-18.9,0.5-37.7,0-56.6,0.4c-64.1,1-128.2-1.9-192.4,0.3
					c-32,1.1-64.1,2.7-96.1,3.4c-16,0.3-31.9,0.6-47.9,0.2c-15.3-0.3-30.9-0.4-46.1-2.4c-1.8,0.6-3.2,1.8-4.4,3.4
					c8.4,3.2,12.7,12.6,19.3,18.1c14.9-1,29.1-5.8,44-6.6c15.6-0.8,31.2-0.3,46.8-1.3c16.3-1,32.6-2,49-2.9
					c32.9-1.8,65.7-2.8,98.6-2.1c33.1,0.7,66.1,2.5,99.1,4.6c31.7,2,63.6,5.4,95.4,5.5c0,0,0.1,0,0.1,0c0.6-0.4,1.1-0.9,1.7-1.4
					c1.4-1.8,3.1-3.4,4.7-5c2.9-2.8,5.9-5.5,9-8.1c0.1-0.1,0.1-0.1,0.2-0.1c-0.1-0.2-0.2-0.3-0.4-0.5
					C488.1,27.2,478.4,27.4,470.3,27.6z M289.3,366.3c62.8-0.3,125.5-2.4,187.5-12.6c6-23.8,8.9-48,9.8-72.5
					c0.5-12.6,0.6-25.3,0.5-37.9c-0.1-11.3-1.5-23.1-0.6-34.4c0-0.2,0.2-0.4,0.4-0.5c0.7-25.7,1.1-51.4-0.1-77.1
					c-1.3-27.4-4.7-54.5-7.9-81.7c-15.9-0.1-31.8-1.3-47.7-2.4c-66-4.3-132.1-9.3-198.2-7.8c-32.7,0.7-65.4,3.2-98,5.2
					c-15.6,1-31.2,0.3-46.8,1.3c-14.1,1-27.9,6.1-42.1,6c-0.2,0.1-0.4,0.2-0.6,0.2L45.3,52c0,0,0,0,0,0c0,0,0,0,0,0
					c-0.1,0-0.1,0-0.2,0c-0.3,0-0.4-0.3-0.3-0.5c-6.4-5.7-10.5-14.1-18.3-17.9c-3.9,6.1-4.5,16.9-4.9,21.9
					c-1.1,14-0.7,28.2-0.1,42.2c0.7,15.8,0.3,31.3,0.1,47.1c-0.2,12.9-0.3,25.8-0.3,38.7c0,12.4,0.8,25.1-0.2,37.4c0,0,0,0,0.1,0
					c0.1,0,0.1,0.1,0.1,0.1c-0.1,0.2-0.1,0.4-0.2,0.5c0,0.1,0,0.3,0,0.4c0,0.3-0.2,0.5-0.3,0.6c-1,3.5-0.7,8-0.8,11.4
					c-0.1,6.9,0.2,13.8,0.6,20.7c0.7,13.1,1.9,26.1,1.7,39.1c-0.1,12.5-0.6,24.9-0.8,37.4c-0.1,9.2-0.8,18.9,1.2,28
					c1,4.7,2.8,9.4,6.2,12.8c2.7-3.1,5.5-6.1,8.5-8.9c2.3-2.1,4.9-4.8,7.9-5.8c-5.3-21.3-6.9-43.5-7.7-65.3
					c-0.8-21.1-1.7-42.9,0-64.1l0.7,0.1c1.1,21.3-0.3,42.7,0.6,64c0.9,22,2.8,44,7.7,65.5c0,0,0,0,0,0c17.7,5.8,36.5,7.9,55,8.8
					C164,369.5,226.6,366.6,289.3,366.3z M417.6,25.3c14.6-0.2,29.4,0.7,44,0c10.1-0.5,23.2-2.3,32,3.8c3,2.1,4.6,4.8,5.6,7.8
					c-0.1,0-0.2,0.1-0.2,0.1c4.1,8.1,1.5,19.1,1.2,27.7c-0.6,15.2-0.6,30.4-0.2,45.6c0.9,30.9-2.3,61.7-0.4,92.6
					c0,0.4-0.4,0.6-0.8,0.6c1,18.5,0,37.3-0.3,55.8c-0.3,19.6-0.6,39.3-0.5,58.9c0,15.7,0.8,31.3,0.9,47c0,3.1-0.3,6.5-1.3,9.3
					c0.4,0.5,0,1.2-0.5,1.3c-0.3,0.6-0.7,1.3-1.1,1.8c0,0.4-0.2,0.9-0.7,1.1c-0.3,0.1-0.6,0.2-0.8,0.3c-1,0.6-2.1,1-3.5,1.1
					c-16.8,4.7-34.8,2.9-52,2.1c-32.3-1.5-64.6-1.1-96.9-0.3c-16.2,0.5-32.4,1.2-48.6,2.4c-16.1,1.2-32.1,2.2-48.2,1.1
					c-16-1.1-31.8-2.2-47.8-1.8c-16.1,0.4-32.3,1.2-48.4,1.3c-16.1,0-32.1-1.1-48.2-2.1c-15.8-1-31.6-1.2-47.4-1.9
					c-0.1,0-0.2,0.1-0.3,0.1c-12.9,0.6-27.1-3-31.5-16.6c-2.5-7.5-2.6-15.6-2.6-23.4c0.1-13.8,0.6-27.5,0.9-41.3
					c0.3-15.9-1-31.5-1.6-47.4c-0.3-7.3-0.6-14.7-0.1-22c0.1-2.2,0.2-5.6,1.4-7.8c-0.2-0.1-0.3-0.3-0.3-0.6
					c-1.1-13.9-0.2-28.4-0.1-42.4c0.1-14.2,0.2-28.4,0.5-42.5c0.3-15.5,0-30.7-0.5-46.1c-0.5-14.6-1-29.6,1.5-44.1
					c0.9-5.2,2.8-16.2,9-18c0-0.2,0.2-0.3,0.5-0.3c24.7,0.2,49.3,1.7,74,1.4c24.4-0.3,48.8-1.2,73.1-2.2c31.7-1.3,63.5-2.7,95.3-2.9
					c32.2-0.1,64.4,0.6,96.5,0.8C385.2,25.6,401.4,25.5,417.6,25.3z"/>
				<radialGradient id="SVGID_62_" cx="320.0193" cy="205.0002" r="542.4036" gradientUnits="userSpaceOnUse">
					<stop  offset="0" style="stop-color:#FFFFFF"/>
					<stop  offset="0.4054" style="stop-color:#FBFBFB"/>
					<stop  offset="0.7864" style="stop-color:#F0F0F0"/>
					<stop  offset="1" style="stop-color:#E6E6E6"/>
				</radialGradient>
				<path class="st66" d="M514.8,208.1c-0.5,13.7-0.4,27.5-0.7,41.2c-0.3,14.3-1.5,29-0.2,43.2c0,0.1,0,0.2,0.1,0.2
					c-0.4,4.2-0.3,8.5-0.5,12.7c-0.3,6.5-0.5,13-0.5,19.5c-0.2,11.5-0.2,23.3,2.4,34.5c-1.2,4.8-2.2,13.9,2.1,17.2
					c6.1,4.6,15.9,2,22.9,1.3c12.5-1.2,25.6,0.5,38.2,0.9c7.2,0.2,14.4,0.2,21.7-0.1c6.1-0.3,12.1-1.5,18.1-1.6
					c0,0.3,0.2,0.6,0.5,0.5c0.5-0.1,0.9-0.3,1.3-0.6c0.2,0,0.4-0.1,0.4-0.3c5.6-4.1,3.3-18.3,2.9-23.6c1-5.2,0.3-11,0-16
					c-0.6-10.6-0.2-21.4-0.4-32c0-0.1-0.1-0.2-0.1-0.2c1-15.7,1-31.5,1.2-47.2c0.2-15.5,0.7-31.8-1.9-47.1c0.2-0.1,0.3-0.4,0.2-0.6
					c-1-6-0.7-12.3-0.8-18.4c-0.1-7.2-0.3-14.5-0.3-21.7c-0.1-14.5-0.1-29-0.1-43.5c0-5.4,0.1-10.9,0.1-16.3c0.5-0.2,0.5-1,0-1.2
					c0.1-8.6,0.1-17.3,0.2-25.9c0.1-13.7,1-27.8-0.1-41.5c2.5-18-26.9-14.9-37.8-14c-9.9,0.9-18.6,1.2-28.5-0.2
					c-10.3-1.4-25.6-5.4-35.6,0c-0.6,0.6-1.1,1.3-1.7,2c0.1,0,0.1,0,0.2,0c0,0,0.1,0,0.1,0c-0.2,0.2-0.5,0.4-0.7,0.6c0,0,0,0,0,0.1
					c-0.1,0.2-0.3,0.4-0.5,0.6c-0.1,0.1-0.1,0.1-0.2,0.2c-3.4,4.7-2.7,15.6-2.8,19.6c-0.3,12.9,0.6,25.8,1.3,38.7
					c1,16.3,0.7,32.5,0.1,48.8c-0.7,23.3-1.2,46.5-0.9,69.8C514.4,207.8,514.6,208,514.8,208.1z M479.6,410
					c-65.4,0.1-130.7-2.5-196.1-2.3c-27.5,0.1-55,0.5-82.6,0.9c-28,0.4-56.1,0.1-84.1,0.5c-19.4,0.3-38.6,1.4-58,2.6
					c-8.3,0.5-16.7,0.8-25,0c-6.2-0.6-13.2-2-17.7-6.5c-0.5-0.4-1-0.8-1.3-1.3c0,0,0-0.1-0.1-0.1c-0.1,0-0.1-0.1-0.1-0.1
					c-0.2-0.1-0.4-0.3-0.5-0.6c0,0,0,0,0-0.1c-0.1-0.1-0.3-0.1-0.4-0.2c-4.5-30.6-4.8-61.6-5.7-92.4c-1-32.6-2.1-65.1-2.5-97.7
					c-0.4-33-0.5-65.9-1.5-98.8C2.9,85.8,6.7,58,6.4,30C6.3,18.9,7.7,7.7,21,6.9c0.1,0,0.2,0,0.3,0C85.9,8,150.6,8,215.3,8
					c33.1,0,66.1-0.2,99.2-1c33.1-0.7,66.1-2,99.2-1.8c32.5,0.3,64.9,1.3,97.4,1.6C526.1,7,541,6.3,556,5.8
					C572.8,5.2,589.8,5,606.5,7c7.3,0.9,27.9,2.8,27.3,13.8c0,0.7,0.2,1.2,0.6,1.6c-0.8,28.5,0,57.1,0.3,85.5
					c0.2,29.2-0.1,58.4,0.6,87.6c0,0-0.1,0.1-0.1,0.1c0.2,0.2,0.4,0.5,0.4,0.9c0,0.4,0,0.8,0,1.2c0.1,0.4,0.1,0.8,0.2,1.3
					c0.2,0.2,0.3,0.3,0.6,0.4c-0.5,17.6-1,35.2-1.4,52.8c-0.5,18.1-0.2,36.2-0.7,54.2c-0.4,16.4-1.4,32.9-0.2,49.3
					c0.9,13.2,2.8,27,0.9,40.3c-0.6,0.3-1,0.9-1,1.7c-0.3,11.4-12,10.7-20.5,10c-12.1-1-23.9-1-36-0.6
					C544.8,408.4,512.3,409.9,479.6,410z M438.9,382c17.2,0.8,35.2,2.5,52-2.1c1.4-0.1,2.6-0.5,3.5-1.1c0.3-0.1,0.6-0.2,0.8-0.3
					c0.5-0.2,0.7-0.6,0.7-1.1c0.4-0.5,0.8-1.1,1.1-1.8c0.5-0.1,0.9-0.7,0.5-1.3c1-2.8,1.3-6.1,1.3-9.3c-0.1-15.7-0.9-31.3-0.9-47
					c0-19.6,0.2-39.3,0.5-58.9c0.3-18.5,1.3-37.3,0.3-55.8c0.4,0.1,0.8-0.1,0.8-0.6c-1.9-30.9,1.3-61.7,0.4-92.6
					c-0.4-15.2-0.4-30.4,0.2-45.6c0.3-8.6,2.8-19.6-1.2-27.7c0.1,0,0.2-0.1,0.2-0.1c-1-3-2.6-5.7-5.6-7.8c-8.8-6.1-22-4.3-32-3.8
					c-14.6,0.7-29.3-0.2-44,0c-16.2,0.3-32.4,0.3-48.6,0.2c-32.2-0.3-64.4-1-96.5-0.8c-31.8,0.1-63.5,1.6-95.3,2.9
					c-24.4,1-48.8,1.9-73.1,2.2c-24.7,0.3-49.3-1.1-74-1.4c-0.3,0-0.4,0.1-0.5,0.3c-6.2,1.8-8.2,12.8-9,18
					c-2.4,14.5-2,29.5-1.5,44.1c0.5,15.5,0.8,30.6,0.5,46.1c-0.3,14.2-0.4,28.4-0.5,42.5c-0.1,14-1,28.4,0.1,42.4
					c0,0.3,0.1,0.5,0.3,0.6c-1.3,2.2-1.3,5.6-1.4,7.8c-0.5,7.3-0.2,14.7,0.1,22c0.6,15.8,1.9,31.5,1.6,47.4
					c-0.3,13.8-0.8,27.5-0.9,41.3c0,7.8,0.1,15.9,2.6,23.4c4.4,13.5,18.6,17.2,31.5,16.6c0.1,0,0.2,0,0.3-0.1
					c15.8,0.7,31.6,0.9,47.4,1.9c16.1,1,32.1,2.1,48.2,2.1c16.2,0,32.3-0.9,48.4-1.3c16.1-0.4,31.8,0.7,47.8,1.8
					c16.2,1.1,32.1,0.1,48.2-1.1c16.2-1.2,32.4-2,48.6-2.4C374.3,380.9,406.6,380.5,438.9,382z"/>
				<path d="M283.5,407.7c65.4-0.3,130.7,2.4,196.1,2.3c32.7-0.1,65.2-1.6,97.8-2.7c12.1-0.4,23.9-0.4,36,0.6
					c8.6,0.7,20.2,1.4,20.5-10c0-0.8,0.4-1.4,1-1.7c1.8-13.3,0-27.1-0.9-40.3c-1.1-16.4-0.2-32.9,0.2-49.3
					c0.5-18.1,0.2-36.2,0.7-54.2c0.5-17.6,0.9-35.2,1.4-52.8c-0.2-0.1-0.4-0.2-0.6-0.4c-0.1-0.4-0.1-0.8-0.2-1.3c0-0.4,0-0.8,0-1.2
					c0-0.4-0.2-0.7-0.4-0.9c0,0,0.1-0.1,0.1-0.1c-0.7-29.2-0.4-58.4-0.6-87.6c-0.2-28.5-1-57.1-0.3-85.5c-0.4-0.4-0.6-0.9-0.6-1.6
					c0.6-11-19.9-13-27.3-13.8c-16.8-2-33.8-1.8-50.6-1.2c-15,0.5-29.9,1.3-44.9,1.1c-32.5-0.3-65-1.3-97.4-1.6
					c-33.1-0.3-66.1,1-99.2,1.8c-33,0.7-66.1,1-99.2,1c-64.7,0-129.4,0-194-1.2c-0.1,0-0.2,0-0.3,0C7.7,7.7,6.3,18.9,6.4,30
					c0.3,28-3.5,55.8-2.5,83.9c1.1,32.9,1.2,65.9,1.5,98.8c0.3,32.6,1.5,65.1,2.5,97.7c1,30.9,1.2,61.8,5.7,92.4
					c0.1,0,0.3,0.1,0.4,0.2c0,0,0,0,0,0.1c0.1,0.3,0.3,0.5,0.5,0.6c0,0,0.1,0.1,0.1,0.1c0,0,0,0.1,0.1,0.1c0.4,0.5,0.8,0.9,1.3,1.3
					c4.5,4.5,11.6,5.9,17.7,6.5c8.3,0.8,16.7,0.6,25,0c19.4-1.3,38.5-2.4,58-2.6c28.1-0.4,56.1-0.1,84.1-0.5
					C228.5,408.2,256,407.8,283.5,407.7z M513.2,413.8c-62.3,1.1-124.5-1.4-186.8-1.9c-65.3-0.5-130.6,0.5-195.9,1.3
					c-15.2,0.2-30.5,0.3-45.7,0.9c-8.7,0.4-17.4,1.4-26.1,2c-13.7,0.9-35.6,3.1-46-8.4c-0.1,0-0.2,0-0.3,0.1c-0.4-0.7-0.9-1.3-1.4-2
					c-0.4-0.8-0.9-1.6-1.3-2.4c-3.6-25.2-4.5-50.6-5.2-76c-0.9-32.3-2.1-64.6-2.4-96.9c-0.3-32.9-0.4-65.8-1.2-98.7
					c-0.4-16.2-1.1-32.3-0.7-48.5c0.4-14.5,1.8-29,1.6-43.5C1.7,25.7,0.3,6.3,16.1,3.3c0.3-0.2,0.6-0.3,1-0.3c0.5,0,1,0,1.4,0
					c0.8-0.1,1.7-0.1,2.6-0.1c0.2,0,0.3,0,0.5,0c3.8,0,7.6-0.1,11.3-0.1c66.1-0.1,132.2,1.1,198.3,1c66.1-0.1,132.3-3.5,198.4-2.5
					c32.1,0.5,64.2,1.9,96.3,1.4c13.4-0.2,26.8-1.3,40.3-1.5c16.6-0.3,33.6-0.5,49.9,2.8c8.7,1.8,22.8,5.5,22.2,16.9
					c0,0.6-0.3,1.1-0.6,1.4c0.8,29.2,0.5,58.5,0.7,87.7c0.3,28.2,1,56.4,0.4,84.6c0.1,0.1,0.2,0.1,0.2,0.2c0.1,0.4,0.2,0.8,0.3,1.2
					c0.1,2.2,0,4.5,0.5,6.6c0.2,17.2-0.7,34.5-1.3,51.7c-0.6,18.7-0.8,37.3-1.3,56c-0.4,16.9-0.9,33.6,0.4,50.5
					c0.9,12,2.1,24.4,0.3,36.3c0.1,0.2,0.1,0.5,0.1,0.8c-0.5,19.4-23.7,13.5-36.4,13.1C572.4,410,542.7,413.3,513.2,413.8z"/>
			</g>
			<g>
			</g>
		</g>
	</g>
</g>
</svg>
